<svg xmlns="http://www.w3.org/2000/svg" width="100" height="100" viewBox="0 0 100 100">
  <g id="Grupo_80122" data-name="Grupo 80122" transform="translate(-1146 -799)">
    <circle id="Elipse_4713" data-name="Elipse 4713" cx="50" cy="50" r="50" transform="translate(1146 799)" fill="#b3eeef"/>
    <g id="delivery-logistic-parcel_box-shipping-send" data-name="delivery-logistic-parcel box-shipping-send" transform="translate(1167 815.173)">
      <path id="Trazado_721650" data-name="Trazado 721650" d="M54.079,16.347a8.22,8.22,0,1,0-13.7-6.123,7.549,7.549,0,0,0,.055.914H19.363a.9.9,0,0,0-.786.448l-5.483,9.138a.914.914,0,0,0-.128.466v7.247l-1.855,1.846A6.338,6.338,0,0,1,6.6,32.156H2.914A.914.914,0,0,0,2,33.07V50.433a.914.914,0,0,0,.914.914H4.55a2.714,2.714,0,0,1,1.517.457l.9.6a4.532,4.532,0,0,0,2.531.768h3.463v2.741a.914.914,0,0,0,.914.914H55.916a.914.914,0,0,0,.914-.914V21.19a.914.914,0,0,0-.128-.466ZM48.605,3.827a6.4,6.4,0,1,1-6.4,6.4,6.4,6.4,0,0,1,6.4-6.4Zm-7.74,9.138a8.2,8.2,0,0,0,11.724,4.45l1.709,2.86H41.13l-1.462-7.311Zm-8.873,0H37.8l1.462,7.311H30.53ZM30.329,22.1h9.138v9.138H30.329ZM19.884,12.966H30.128l-1.462,7.311H15.5ZM3.828,33.984H6.6a8.2,8.2,0,0,0,5.812-2.4l.557-.567v1.992L11.12,34.852A6.376,6.376,0,0,1,6.6,36.725H3.828ZM9.5,51.346a2.714,2.714,0,0,1-1.517-.457l-.9-.6a4.532,4.532,0,0,0-2.531-.768H3.828V38.553H6.6a8.171,8.171,0,0,0,5.812-2.412l2.12-2.111,2.851-2.851a1.809,1.809,0,0,1,0,2.577L14.145,36.99a.914.914,0,0,0-.192,1,.9.9,0,0,0,.841.567h9.952a1,1,0,0,1,.987.685.879.879,0,0,1-.256.877.848.848,0,0,1-.631.265H17.535a.914.914,0,0,0,0,1.828h9.038a1,1,0,0,1,.987.685.879.879,0,0,1-.256.877.848.848,0,0,1-.631.265H17.535a.914.914,0,0,0,0,1.828h7.311a.914.914,0,0,1,.914.914.867.867,0,0,1-.283.649.848.848,0,0,1-.631.265H17.535a.914.914,0,0,0,0,1.828H21.19a.914.914,0,0,1,.914.914.867.867,0,0,1-.283.649.848.848,0,0,1-.631.265ZM55,55H14.794V53.174h6.4a2.745,2.745,0,0,0,2.586-3.655h1.069a2.741,2.741,0,0,0,2.741-2.741,2.625,2.625,0,0,0-.192-1.005,2.736,2.736,0,0,0-.009-5.282,2.628,2.628,0,0,0,.11-1.7,2.79,2.79,0,0,0-2.751-2.065H17l1.681-1.672a3.663,3.663,0,0,0,0-5.172l-.649-.649a.927.927,0,0,0-1.3,0l-1.937,1.946V22.1H28.5V32.156a.914.914,0,0,0,.914.914H40.381a.914.914,0,0,0,.914-.914V22.1H55Z" transform="translate(0 0)" fill="#9b1f36"/>
      <path id="Trazado_721651" data-name="Trazado 721651" d="M52.3,42.268a.914.914,0,0,0-1.292,0l-2.741,2.741A.914.914,0,1,0,49.56,46.3l1.181-1.182v8.76a.914.914,0,0,0,1.828,0V45.12L53.751,46.3a.914.914,0,1,0,1.292-1.292Z" transform="translate(-3.964 -3.447)" fill="#9b1f36"/>
      <path id="Trazado_721652" data-name="Trazado 721652" d="M51.085,13.194a.914.914,0,0,0,1.292,0l3.877-3.877a.914.914,0,1,0-1.292-1.292l-3.231,3.231L50.439,9.964a.914.914,0,1,0-1.292,1.292Z" transform="translate(-4.04 -0.496)" fill="#9b1f36"/>
    </g>
  </g>
</svg>
