<svg xmlns="http://www.w3.org/2000/svg" width="100" height="100" viewBox="0 0 100 100">
  <g id="Grupo_961210" data-name="Grupo 961210" transform="translate(-220 -2103)">
    <circle id="Elipse_4712" data-name="Elipse 4712" cx="50" cy="50" r="50" transform="translate(220 2103)" fill="#b3eeef"/>
    <g id="barco-de-carga" transform="translate(229 2038.432)">
      <path id="Trazado_709380" data-name="Trazado 709380" d="M235.488,167.378h-9.921V157.257a.348.348,0,0,0-.348-.348H204.457a.348.348,0,0,0-.348.348v20.591H236.3v-9.661A.808.808,0,0,0,235.488,167.378Z" transform="translate(-171.659 -58.317)" fill="#ffc06c"/>
      <rect id="Rectángulo_34854" data-name="Rectángulo 34854" width="20.95" height="11.714" transform="translate(5.417 108.657)" fill="#e1effb"/>
      <rect id="Rectángulo_34855" data-name="Rectángulo 34855" width="8.946" height="11.714" transform="translate(17.421 108.657)" fill="#bad5e5"/>
      <path id="Trazado_709381" data-name="Trazado 709381" d="M73.351,264.6h0a2.064,2.064,0,0,1-2.064,2.064H8.386a.872.872,0,0,0-.854,1.05,23.93,23.93,0,0,0,5.8,11.031,2.53,2.53,0,0,1,.393,2.778L11.774,285.6a1.032,1.032,0,0,0,.931,1.476H74.929a1.026,1.026,0,0,0,.929-.59L86.423,264a1.026,1.026,0,0,0-.929-1.463H75.415A2.064,2.064,0,0,0,73.351,264.6Z" transform="translate(-6.318 -147.149)" fill="#ff4c4c"/>
      <path id="Trazado_709382" data-name="Trazado 709382" d="M394.066,262.533h-8.121l-11.53,24.544H383.5a1.026,1.026,0,0,0,.929-.59L394.994,264A1.026,1.026,0,0,0,394.066,262.533Z" transform="translate(-314.889 -147.149)" fill="#ef2929"/>
      <g id="Grupo_961211" data-name="Grupo 961211" transform="translate(32.45 98.592)">
        <path id="Trazado_709383" data-name="Trazado 709383" d="M349.812,233.229H339.083V222.76H349a.808.808,0,0,1,.808.808Z" transform="translate(-317.625 -212.291)" fill="#eda558"/>
        <rect id="Rectángulo_34856" data-name="Rectángulo 34856" width="10.73" height="10.469" transform="translate(0 10.469)" fill="#eda558"/>
        <path id="Trazado_709384" data-name="Trazado 709384" d="M282.324,167.377H271.6V156.908h10.381a.348.348,0,0,1,.348.348v10.121Z" transform="translate(-260.866 -156.908)" fill="#eda558"/>
      </g>
      <path id="Trazado_709385" data-name="Trazado 709385" d="M70.275,151.355H56.435v-11.2a.589.589,0,0,1,.589-.589H69.686a.589.589,0,0,1,.589.589v11.2Z" transform="translate(-47.463 -43.734)" fill="#e1effb"/>
      <path id="Trazado_709386" data-name="Trazado 709386" d="M95.573,139.569H87.215v11.786h8.947v-11.2A.589.589,0,0,0,95.573,139.569Z" transform="translate(-73.349 -43.734)" fill="#bad5e5"/>
      <path id="Trazado_709387" data-name="Trazado 709387" d="M47.9,209.681H24.572a.38.38,0,0,1-.38-.38v-2.918a.38.38,0,0,1,.38-.38H47.9a.38.38,0,0,1,.38.38V209.3A.38.38,0,0,1,47.9,209.681Z" transform="translate(-20.346 -99.606)" fill="#cccbca"/>
      <path id="Trazado_709388" data-name="Trazado 709388" d="M128.023,206h-8.566v3.678h8.566a.38.38,0,0,0,.38-.38v-2.918A.38.38,0,0,0,128.023,206Z" transform="translate(-100.465 -99.606)" fill="#b9bbc1"/>
      <path id="Trazado_709389" data-name="Trazado 709389" d="M35.923,372.059a2.536,2.536,0,0,1-.2,1.575l-1.949,4.081a1.032,1.032,0,0,0,.931,1.476H96.928a1.026,1.026,0,0,0,.929-.59l3.073-6.542Z" transform="translate(-28.318 -239.263)" fill="#33d8dd"/>
      <path id="Trazado_709390" data-name="Trazado 709390" d="M377.764,372.059l-3.35,7.132H383.5a1.026,1.026,0,0,0,.929-.59l3.073-6.542Z" transform="translate(-314.889 -239.263)" fill="#0fb0c0"/>
      <path id="Trazado_709391" data-name="Trazado 709391" d="M81.051,115.22a2.21,2.21,0,0,0-1.874-1.03H69.1a3.262,3.262,0,0,0-3.259,3.259.881.881,0,0,1-.007.105v-7.684a2,2,0,0,0-2-2H55.1V98.94A1.544,1.544,0,0,0,53.56,97.4H32.8a1.544,1.544,0,0,0-1.542,1.542v19.379H27.562v-7.049a1.576,1.576,0,0,0,1.571-1.574v-2.918a1.576,1.576,0,0,0-1.575-1.575H24.007V96.424a1.785,1.785,0,0,0-1.783-1.783H17.1V88.775a1.207,1.207,0,0,0-2.414,0v5.866H9.561a1.785,1.785,0,0,0-1.783,1.783V105.2H4.227a1.576,1.576,0,0,0-1.575,1.575v2.918a1.576,1.576,0,0,0,1.571,1.574v7.049H2.068A2.066,2.066,0,0,0,.045,120.81,25.426,25.426,0,0,0,6.121,132.39a1.32,1.32,0,0,1,.312.641,1.345,1.345,0,0,1,.021.191c0,.007,0,.014,0,.021a1.343,1.343,0,0,1-.008.179c0,.011,0,.023,0,.034a1.324,1.324,0,0,1-.034.163c0,.014-.006.029-.01.043a1.341,1.341,0,0,1-.075.2l-1.949,4.081a2.226,2.226,0,0,0,2.009,3.185H68.61a2.229,2.229,0,0,0,2.01-1.276l10.566-22.493A2.209,2.209,0,0,0,81.051,115.22ZM55.1,110.255h8.341v8.063H55.1ZM44.373,99.786h8.341v8.081H44.373Zm0,10.469h8.341v8.063H44.373ZM33.644,99.786h8.341v8.081H33.644Zm0,10.469h8.341v8.063H33.644ZM10.167,97.029H21.618V105.2H10.167ZM5.041,107.591h21.7v1.29H13.237a1.194,1.194,0,1,0,0,2.389H25.173v7.049H6.612v-7.049H7.621a1.194,1.194,0,1,0,0-2.389H5.041Zm59.6,13.133c.067,0,.267-.007.331-.018h0a3.262,3.262,0,0,0,3.259-3.259.871.871,0,0,1,.87-.87h9.815L71.854,131.6H60.015a1.194,1.194,0,0,0,0,2.389H70.732L68.5,138.734H6.644l1.838-3.848c.038-.079.072-.16.1-.241.01-.025.019-.051.028-.077.021-.056.041-.112.059-.169.01-.031.019-.063.028-.095q.022-.075.04-.151c.009-.037.017-.074.025-.111,0-.018.009-.035.012-.053H54.4a1.194,1.194,0,0,0,0-2.389H8.448A3.719,3.719,0,0,0,7.9,130.8a22.851,22.851,0,0,1-5.432-10.09l62.168.017" transform="translate(0)"/>
    </g>
  </g>
</svg>
