<svg xmlns="http://www.w3.org/2000/svg" width="42" height="42.135" viewBox="0 0 42 42.135">
  <g id="comportamiento" transform="translate(-1 -1)">
    <path id="Trazado_722177" data-name="Trazado 722177" d="M25.179,32.627c-1.057.047-2.088.135-3.082.258A16.83,16.83,0,0,0,18.264,25.4l-1.016.9a15.753,15.753,0,0,1,3.9,10.956l1.348.135a14.057,14.057,0,0,0-.144-3.17c.932-.11,1.9-.2,2.887-.24Z" transform="translate(-5.241 -7.871)" fill="#9b1f36"/>
    <path id="Trazado_722178" data-name="Trazado 722178" d="M39.117,54.755a35.018,35.018,0,0,0,0-13.814c-.154-2.288-4.17-3.437-6.589-3.919l-.265,1.328c3.787.756,5.512,1.939,5.512,2.721,0,1.414-4.9,3.387-12.871,3.387s-12.871-1.973-12.871-3.387c0-.782,1.725-1.965,5.513-2.723l-.265-1.328c-2.419.482-6.435,1.631-6.589,3.919a35.019,35.019,0,0,0,0,13.814l1.328-.266a33.689,33.689,0,0,1-.3-11.516c2.231,1.872,7.733,2.842,13.187,2.842s10.955-.97,13.187-2.845a33.689,33.689,0,0,1-.3,11.516Z" transform="translate(-2.905 -11.619)" fill="#9b1f36"/>
    <path id="Trazado_722179" data-name="Trazado 722179" d="M29.1,13.194A6.1,6.1,0,1,0,23,7.1a6.1,6.1,0,0,0,6.1,6.1Zm0-10.839A4.742,4.742,0,1,1,24.355,7.1,4.742,4.742,0,0,1,29.1,2.355Z" transform="translate(-7.097)" fill="#9b1f36"/>
    <path id="Trazado_722180" data-name="Trazado 722180" d="M51.1,8a6.1,6.1,0,1,0,6.1,6.1A6.1,6.1,0,0,0,51.1,8Zm1.731,10.507a4.682,4.682,0,0,1-3.463,0V16.129a.677.677,0,0,1,.677-.677h2.108a.677.677,0,0,1,.677.677ZM50.25,12.592a.847.847,0,1,1,.847.847.847.847,0,0,1-.847-.847Zm3.933,5.1V16.129a2.032,2.032,0,0,0-1.548-1.965,2.2,2.2,0,1,0-3.077,0,2.032,2.032,0,0,0-1.548,1.965v1.558a4.742,4.742,0,1,1,6.173,0Z" transform="translate(-14.194 -2.258)" fill="#9b1f36"/>
    <path id="Trazado_722181" data-name="Trazado 722181" d="M7.1,20.194A6.1,6.1,0,1,0,1,14.1a6.1,6.1,0,0,0,6.1,6.1Zm0-10.839A4.742,4.742,0,1,1,2.355,14.1,4.742,4.742,0,0,1,7.1,9.355Z" transform="translate(0 -2.258)" fill="#9b1f36"/>
    <path id="Trazado_722182" data-name="Trazado 722182" d="M25.129,55H23.774a2.71,2.71,0,1,1-5.419,0H17a4.065,4.065,0,1,0,8.129,0Z" transform="translate(-5.161 -17.419)" fill="#9b1f36"/>
    <path id="Trazado_722183" data-name="Trazado 722183" d="M43.129,55H41.774a2.71,2.71,0,1,1-5.419,0H35a4.065,4.065,0,1,0,8.129,0Z" transform="translate(-10.968 -17.419)" fill="#9b1f36"/>
    <path id="Trazado_722184" data-name="Trazado 722184" d="M6.907,18.2l1.016.77a.677.677,0,0,0,.818,0l1.016-.77a6.453,6.453,0,0,0,1.626-1.824,2.3,2.3,0,0,0-.245-2.7,1.982,1.982,0,0,0-2.809-.118,1.981,1.981,0,0,0-2.8.118,2.293,2.293,0,0,0-.246,2.7A6.445,6.445,0,0,0,6.907,18.2ZM6.529,14.58a.588.588,0,0,1,.911,0l.388.431a.7.7,0,0,0,1.006,0l.389-.431a.6.6,0,0,1,.911,0,.954.954,0,0,1,.091,1.095,5.1,5.1,0,0,1-1.287,1.444l-.61.46-.606-.46a5.094,5.094,0,0,1-1.287-1.443.954.954,0,0,1,.093-1.1Z" transform="translate(-1.275 -3.88)" fill="#9b1f36"/>
    <path id="Trazado_722185" data-name="Trazado 722185" d="M31.371,9.742h-.677a.339.339,0,0,1-.339-.339H29a1.693,1.693,0,0,0,1.355,1.659v.712H31.71v-.712a1.694,1.694,0,0,0-.339-3.353h-.677a.339.339,0,1,1,0-.677h.677a.339.339,0,0,1,.339.339h1.355A1.693,1.693,0,0,0,31.71,5.712V5H30.355v.712a1.694,1.694,0,0,0,.339,3.353h.677a.339.339,0,1,1,0,.677Z" transform="translate(-9.032 -1.29)" fill="#9b1f36"/>
    <path id="Trazado_722186" data-name="Trazado 722186" d="M31,22h1.355V36.226H31Z" transform="translate(-9.677 -6.774)" fill="#9b1f36"/>
    <path id="Trazado_722187" data-name="Trazado 722187" d="M38.1,32.884c-.994-.12-2.025-.211-3.082-.258l-.061,1.355c.991.045,1.955.129,2.887.24a14.057,14.057,0,0,0-.144,3.17l1.351-.137a15.753,15.753,0,0,1,3.9-10.959l-1.016-.9A16.83,16.83,0,0,0,38.1,32.884Z" transform="translate(-10.953 -7.87)" fill="#9b1f36"/>
  </g>
</svg>
