<svg xmlns="http://www.w3.org/2000/svg" width="31.5" height="31.61" viewBox="0 0 31.5 31.61">
  <g id="OUTLINE" transform="translate(-19.75 -19.75)">
    <path id="Trazado_722193" data-name="Trazado 722193" d="M148.24,336.565l-.524.034c.011.168.017.339.017.508a7.619,7.619,0,1,1-14.963-2.032l-.507-.14a8.145,8.145,0,1,0,16,2.172C148.257,336.927,148.251,336.744,148.24,336.565Z" transform="translate(-104.614 -294.251)" fill="#9b1f36" stroke="#9b1f36" stroke-width="0.5"/>
    <path id="Trazado_722194" data-name="Trazado 722194" d="M155.593,244.525a7.6,7.6,0,0,1,4.063,1.173l.281-.444a8.148,8.148,0,0,0-11.4,2.824l.455.263A7.647,7.647,0,0,1,155.593,244.525Z" transform="translate(-120.093 -209.288)" fill="#9b1f36" stroke="#9b1f36" stroke-width="0.5"/>
    <path id="Trazado_722195" data-name="Trazado 722195" d="M22.115,153.481a.263.263,0,0,0,.249.18h3.153a.263.263,0,0,0,.249-.18l.466-1.4h1.387a.263.263,0,0,0,.261-.29l-1.051-9.983a.263.263,0,0,0-.261-.235h-.861l-.466-1.4a.263.263,0,0,0-.249-.18h-2.1a.263.263,0,0,0-.249.18l-.466,1.4h-.861a.263.263,0,0,0-.261.235L20,151.794a.263.263,0,0,0,.261.29H21.65Zm3.212-.346H22.554l-.35-1.051h3.474Zm-4.442-4.717,5.529-5.529.179,1.7-5.93,5.93Zm5.779-3.152.368,3.5L25.1,146.83Zm-3.249,3.249,3.044,3.044H24.575l-2.1-2.1Zm3.787,3.044-3.415-3.415.942-.942,2.391,2.391.207,1.966Zm-.859-9.342-5.371,5.371.222-2.106,3.381-3.381h1.756Zm-3.264-1.692H24.8l.35,1.051H22.729ZM21.55,142.1h2.282l-2.55,2.55Zm-.974,9.253,1.526-1.526,1.73,1.73H20.555Z" transform="translate(0 -112.119)" fill="#9b1f36" stroke="#9b1f36" stroke-width="0.5"/>
    <path id="Trazado_722196" data-name="Trazado 722196" d="M196.263,155.415h6.305v-.525h-6.042V152H196v3.153a.263.263,0,0,0,.263.263Z" transform="translate(-164.441 -123.331)" fill="#9b1f36" stroke="#9b1f36" stroke-width="0.5"/>
    <path id="Trazado_722197" data-name="Trazado 722197" d="M165.517,109.576H160v.525h5.517a1.051,1.051,0,0,0,0-2.1h-.788v.525h.788a.525.525,0,0,1,0,1.051Z" transform="translate(-130.805 -82.22)" fill="#9b1f36" stroke="#9b1f36" stroke-width="0.5"/>
    <path id="Trazado_722198" data-name="Trazado 722198" d="M333.587,113.051a.526.526,0,0,1-.525.525h-2.737v.525h2.737a1.051,1.051,0,1,0,0-2.1h-.788v.525h.788A.526.526,0,0,1,333.587,113.051Z" transform="translate(-289.943 -85.958)" fill="#9b1f36" stroke="#9b1f36" stroke-width="0.5"/>
    <path id="Trazado_722199" data-name="Trazado 722199" d="M184.229,164h-9.458a1.315,1.315,0,0,0-1.314,1.314v2.1a.263.263,0,0,0,.013.083l.525,1.576a.263.263,0,0,0,.249.18h.788v1.314h.525v-1.314h.788a.263.263,0,0,0,.249-.18l.286-.858a.787.787,0,0,1,.748-.539h1.344a.789.789,0,0,1,.788.788v3.941H173.72a.263.263,0,0,0-.263.263v.417l-5.517,5.517-1.916-1.916a.263.263,0,0,0-.372,0l-1.576,1.576a.263.263,0,0,0,0,.372l3.678,3.678a.263.263,0,0,0,.372,0l6.28-6.28a1.316,1.316,0,0,0,.364.052h9.458a1.315,1.315,0,0,0,1.314-1.314v-9.458A1.315,1.315,0,0,0,184.229,164Zm-5.254,3.153H177.63a1.312,1.312,0,0,0-1.246.9l-.226.678h-1.723l-.452-1.356v-2.059a.789.789,0,0,1,.788-.788h9.458a.789.789,0,0,1,.788.788v7.093h-4.729v-3.941A1.315,1.315,0,0,0,178.974,167.153Zm-11.034,14.6-3.306-3.306,1.2-1.2,1.916,1.916a.263.263,0,0,0,.372,0l6.119-6.119,1.2,1.2Zm17.076-6.984a.789.789,0,0,1-.788.788H174.88l1.128-1.128a.263.263,0,0,0,0-.372l-1.128-1.128h10.137Z" transform="translate(-134.542 -134.542)" fill="#9b1f36" stroke="#9b1f36" stroke-width="0.5"/>
    <path id="Trazado_722200" data-name="Trazado 722200" d="M429.314,214.627A1.314,1.314,0,1,0,428,213.314,1.314,1.314,0,0,0,429.314,214.627Zm0-2.1a.788.788,0,1,1-.788.788A.788.788,0,0,1,429.314,212.525Z" transform="translate(-381.204 -179.39)" fill="#9b1f36" stroke="#9b1f36" stroke-width="0.5"/>
    <path id="Trazado_722201" data-name="Trazado 722201" d="M372.263,56.212l.471-.233a15.474,15.474,0,0,0-6.413-6.7l-.254.46A14.951,14.951,0,0,1,372.263,56.212Z" transform="translate(-323.338 -27.352)" fill="#9b1f36" stroke="#9b1f36" stroke-width="0.5"/>
    <path id="Trazado_722202" data-name="Trazado 722202" d="M64.841,49.735l-.254-.46A15.622,15.622,0,0,0,59.141,54.3l.438.29a15.094,15.094,0,0,1,5.262-4.856Z" transform="translate(-36.57 -27.352)" fill="#9b1f36" stroke="#9b1f36" stroke-width="0.5"/>
    <path id="Trazado_722203" data-name="Trazado 722203" d="M45.455,358.205l-.469.236a15.642,15.642,0,0,0,6.911,6.911l.236-.469A15.113,15.113,0,0,1,45.455,358.205Z" transform="translate(-23.344 -315.992)" fill="#9b1f36" stroke="#9b1f36" stroke-width="0.5"/>
    <path id="Trazado_722204" data-name="Trazado 722204" d="M357.1,363.887l.233.471a15.626,15.626,0,0,0,7.023-7.023l-.471-.233A15.1,15.1,0,0,1,357.1,363.887Z" transform="translate(-314.962 -314.961)" fill="#9b1f36" stroke="#9b1f36" stroke-width="0.5"/>
    <path id="Trazado_722205" data-name="Trazado 722205" d="M157.653,24.652a.263.263,0,0,0,.372,0l.6-.6v2.518h.525V23.415a.263.263,0,0,0-.448-.186l-.865.865-1.229-1.229.656-.875a3.425,3.425,0,0,1,1.9-1.264l.8-.2h.288l.093.374a2.282,2.282,0,0,0,4.427,0l.093-.374h.288l.8.2a3.425,3.425,0,0,1,1.9,1.264l.656.875L167.3,24.095l-.865-.865a.263.263,0,0,0-.449.186v5.254h.525v-4.62l.6.6a.263.263,0,0,0,.372,0l1.576-1.576a.263.263,0,0,0,.024-.343l-.793-1.057a3.952,3.952,0,0,0-2.2-1.459l-.835-.209a.262.262,0,0,0-.064-.008h-5.254a.262.262,0,0,0-.064.008l-.835.209a3.952,3.952,0,0,0-2.2,1.459l-.793,1.057a.263.263,0,0,0,.024.343Zm6.618-3.88a1.756,1.756,0,0,1-3.407,0l-.061-.246h3.53Z" transform="translate(-127.068)" fill="#9b1f36" stroke="#9b1f36" stroke-width="0.5"/>
    <rect id="Rectángulo_36476" data-name="Rectángulo 36476" width="3.421" height="0.57" transform="translate(34.256 28.759)" fill="#9b1f36" stroke="#9b1f36" stroke-width="0.5"/>
  </g>
</svg>
