<svg xmlns="http://www.w3.org/2000/svg" width="100" height="100" viewBox="0 0 100 100">
  <g id="Grupo_80124" data-name="Grupo 80124" transform="translate(-354 -799)">
    <circle id="Elipse_4711" data-name="Elipse 4711" cx="50" cy="50" r="50" transform="translate(354 799)" fill="#b3eeef"/>
    <g id="strategy" transform="translate(334.818 819.496)">
      <path id="Trazado_721639" data-name="Trazado 721639" d="M90.893,34.524H81.015a.866.866,0,0,0,0,1.733h9.878a.88.88,0,0,1,.879.879v49.8a.88.88,0,0,1-.879.879H47.47a.88.88,0,0,1-.879-.879V79.441a.866.866,0,0,0-1.733,0v7.492a2.614,2.614,0,0,0,2.611,2.611H90.893A2.614,2.614,0,0,0,93.5,86.933v-49.8A2.614,2.614,0,0,0,90.893,34.524Z" transform="translate(0 -30.536)" fill="#9b1f36"/>
      <path id="Trazado_721640" data-name="Trazado 721640" d="M45.725,76.612a.866.866,0,0,0,.866-.866V37.135a.88.88,0,0,1,.879-.879h9.762a.866.866,0,0,0,0-1.733H47.47a2.614,2.614,0,0,0-2.611,2.611V75.746A.866.866,0,0,0,45.725,76.612Z" transform="translate(0 -30.536)" fill="#9b1f36"/>
      <path id="Trazado_721641" data-name="Trazado 721641" d="M176.921,9.826H183.7a.866.866,0,1,0,0-1.733h-6.781a.725.725,0,0,1-.724-.724V4.961a.725.725,0,0,1,.724-.724h.025a.866.866,0,0,0,.866-.866V2.214a.482.482,0,0,1,.482-.482h10.932a.482.482,0,0,1,.482.482V3.371a.866.866,0,0,0,.866.866h.025a.725.725,0,0,1,.724.724V7.369a.725.725,0,0,1-.724.724h-3.2a.866.866,0,0,0,0,1.733h3.2a2.459,2.459,0,0,0,2.456-2.456V4.961a2.461,2.461,0,0,0-1.615-2.308V2.214A2.217,2.217,0,0,0,189.226,0H178.294a2.217,2.217,0,0,0-2.214,2.214v.439a2.461,2.461,0,0,0-1.615,2.308V7.369A2.459,2.459,0,0,0,176.921,9.826Z" transform="translate(-114.636)" fill="#9b1f36"/>
      <path id="Trazado_721642" data-name="Trazado 721642" d="M227.5,43.409a.866.866,0,0,0-.866-.866h-6.873a.866.866,0,0,0,0,1.733h6.873A.866.866,0,0,0,227.5,43.409Z" transform="translate(-153.938 -37.629)" fill="#9b1f36"/>
      <path id="Trazado_721643" data-name="Trazado 721643" d="M119.259,147.2a3.114,3.114,0,1,0,3.114-3.114A3.118,3.118,0,0,0,119.259,147.2Zm4.5,0a1.382,1.382,0,1,1-1.382-1.382A1.383,1.383,0,0,1,123.755,147.2Z" transform="translate(-65.807 -127.446)" fill="#9b1f36"/>
      <path id="Trazado_721644" data-name="Trazado 721644" d="M330.035,144.089a3.114,3.114,0,1,0,3.114,3.114A3.118,3.118,0,0,0,330.035,144.089Zm0,4.5a1.382,1.382,0,1,1,1.382-1.382A1.383,1.383,0,0,1,330.035,148.585Z" transform="translate(-249.483 -127.446)" fill="#9b1f36"/>
      <path id="Trazado_721645" data-name="Trazado 721645" d="M361,394.686a2.874,2.874,0,1,0,2.874-2.874A2.878,2.878,0,0,0,361,394.686Zm2.874-1.142a1.142,1.142,0,1,1-1.142,1.142A1.143,1.143,0,0,1,363.87,393.544Z" transform="translate(-279.623 -346.556)" fill="#9b1f36"/>
      <path id="Trazado_721646" data-name="Trazado 721646" d="M253.832,233.187a1.21,1.21,0,0,0-1.71,0L249.81,235.5a.866.866,0,0,0,1.225,1.225l1.076-1.076v5.814a6.436,6.436,0,0,1-6.428,6.428h-5.016a.866.866,0,0,0,0,1.733h5.016a8.17,8.17,0,0,0,8.161-8.161v-5.814l1.076,1.076a.866.866,0,0,0,1.225-1.225Z" transform="translate(-172.425 -205.941)" fill="#9b1f36"/>
      <path id="Trazado_721647" data-name="Trazado 721647" d="M184.67,211.453a.866.866,0,0,0,.611-1.48l-3.571-3.551,1.521,0a.866.866,0,0,0,0-1.733h0l-3.27.009a1.209,1.209,0,0,0-1.206,1.212l.009,3.27a.866.866,0,0,0,.866.864h0a.866.866,0,0,0,.864-.869l0-1.521,3.571,3.551A.864.864,0,0,0,184.67,211.453Z" transform="translate(-118.427 -181.043)" fill="#9b1f36"/>
      <path id="Trazado_721648" data-name="Trazado 721648" d="M246.877,277.654a.866.866,0,0,0,1.225,0l1.185-1.179,1.185,1.179a.866.866,0,1,0,1.222-1.228l-1.179-1.172,1.179-1.172a.866.866,0,0,0-1.222-1.228l-1.185,1.179-1.185-1.179a.866.866,0,1,0-1.222,1.228l1.179,1.172-1.179,1.172A.866.866,0,0,0,246.877,277.654Z" transform="translate(-178.462 -241.118)" fill="#9b1f36"/>
      <path id="Trazado_721649" data-name="Trazado 721649" d="M155.521,369.037a.866.866,0,0,0-1.225,0l-1.185,1.179-1.185-1.179a.866.866,0,0,0-1.222,1.228l1.179,1.172-1.179,1.172a.866.866,0,0,0,1.222,1.228l1.185-1.179,1.185,1.179a.866.866,0,1,0,1.222-1.228l-1.179-1.172,1.179-1.172A.866.866,0,0,0,155.521,369.037Z" transform="translate(-93.393 -326.187)" fill="#9b1f36"/>
    </g>
  </g>
</svg>
