<svg xmlns="http://www.w3.org/2000/svg" width="100" height="100" viewBox="0 0 100 100">
  <g id="Grupo_968679" data-name="Grupo 968679" transform="translate(-354 -799)">
    <circle id="Elipse_4711" data-name="Elipse 4711" cx="50" cy="50" r="50" transform="translate(354 799)" fill="#b3eeef"/>
    <g id="engineer" transform="translate(327.432 815.713)">
      <path id="Trazado_721653" data-name="Trazado 721653" d="M103.283,65.163l-.611-3.627a10.607,10.607,0,0,0-7.423-8.4c-2.489-.663-8.4-2.234-10.794-2.871l-.11-1.411H95.192a.971.971,0,0,0,.97-.934c.113-2.921.08-11-.225-13.921a6.5,6.5,0,0,0,1.769-4.463,5,5,0,0,0-2.457-4.3,15.271,15.271,0,0,0-.8-3.488,3.043,3.043,0,0,0-.119-6.083h-.292a14.344,14.344,0,0,0-4.1-9.136.971.971,0,1,0-1.387,1.36,12.5,12.5,0,0,1,2.419,3.492A36.1,36.1,0,0,0,80.676,8.988v-4.8A12.348,12.348,0,0,1,85.024,5.36a.971.971,0,0,0,.838-1.752,14.28,14.28,0,0,0-5.2-1.371A2.527,2.527,0,0,0,78.151,0H74.784a2.528,2.528,0,0,0-2.509,2.247A14.437,14.437,0,0,0,59.02,15.667h-.162a3.043,3.043,0,0,0-.119,6.083,15.427,15.427,0,0,0-.788,3.409,5,5,0,0,0-2.594,4.381,6.506,6.506,0,0,0,1.908,4.609c-.291,3.031-.321,10.9-.211,13.775a.971.971,0,0,0,.97.934H68.874l-.11,1.411c-2.425.645-8.336,2.216-10.794,2.871a10.608,10.608,0,0,0-7.424,8.4l-.611,3.623a.971.971,0,0,0,.8,1.119,1.021,1.021,0,0,0,1.119-.8l.61-3.618a8.705,8.705,0,0,1,2.736-4.99l1.3,8.593a.971.971,0,0,0,.959.825,1.015,1.015,0,0,0,.961-1.117l-1.448-9.541A8.8,8.8,0,0,1,58.515,55l2.831-.753,1.7,11.219a.971.971,0,0,0,.959.825,1.015,1.015,0,0,0,.961-1.117l-1.735-11.43,1.366-.363,4.2,8.829a.971.971,0,0,0,1.411.394l5.349-3.52v6.237a.971.971,0,1,0,1.942,0V58.987l5.5,3.622a.971.971,0,0,0,1.411-.394l1.327-2.789a.971.971,0,1,0-1.754-.835l-.848,1.782-4.879-3.211,5.54-5.056,2.905.773-.731,1.537a.971.971,0,1,0,1.754.834l.887-1.864,1.366.363-1.735,11.43a.971.971,0,0,0,.814,1.106,1.023,1.023,0,0,0,1.106-.814l1.7-11.219L94.7,55a8.809,8.809,0,0,1,1.542.634L94.8,65.178a.971.971,0,0,0,.814,1.106,1.023,1.023,0,0,0,1.106-.814l1.3-8.593a8.7,8.7,0,0,1,2.736,4.986l.611,3.623a.971.971,0,0,0,.956.81,1.013,1.013,0,0,0,.958-1.133ZM94.249,46.915H84.193l-.085-1.09a39.362,39.362,0,0,0,5.469-6.139,17.394,17.394,0,0,0,2.068-3.644,6.438,6.438,0,0,0,2.453-.666C94.281,38.427,94.312,43.993,94.249,46.915ZM92.262,33.991a37.021,37.021,0,0,0,.509-7.5,3.048,3.048,0,0,1,2.994,3.049A4.58,4.58,0,0,1,92.262,33.991Zm.465-9.444A3.232,3.232,0,0,1,89.5,21.753h2.889a16.116,16.116,0,0,1,.813,2.817c-.157-.015-.315-.023-.476-.023ZM72.259,4.2V9.012a35.054,35.054,0,0,0-10.225,2.443A12.4,12.4,0,0,1,72.259,4.2ZM61.212,13.96A33.2,33.2,0,0,1,73.3,10.871a.971.971,0,0,0,.9-.968V2.525a.583.583,0,0,1,.583-.583h3.367a.583.583,0,0,1,.583.583V9.884a.971.971,0,0,0,.9.969,33.3,33.3,0,0,1,12.2,3.04,12.514,12.514,0,0,1,.264,1.774H60.966a12.647,12.647,0,0,1,.246-1.708Zm-.407,7.793h2.811a3.175,3.175,0,0,1-3.148,2.794c-.173,0-.106,0-.474.013A16.235,16.235,0,0,1,60.805,21.753Zm-.467,4.736h.085a36.214,36.214,0,0,0,.523,7.534A4.58,4.58,0,0,1,57.3,29.54,3.048,3.048,0,0,1,60.338,26.49ZM58.969,46.915c-.063-2.9-.033-8.4.147-11.467a6.442,6.442,0,0,0,2.444.6,15.856,15.856,0,0,0,1.772,3.233.971.971,0,1,0,1.6-1.105c-2.377-3.434-2.557-5.718-2.565-12.056a5.123,5.123,0,0,0,3.2-4.37H72.7a.971.971,0,1,0,0-1.942H58.858a1.1,1.1,0,1,1,0-2.2H94.336a1.1,1.1,0,1,1,0,2.2H77.257a.971.971,0,0,0,0,1.942H87.55a5.123,5.123,0,0,0,3.28,4.4c-.01,6.424-.21,8.756-2.81,12.371-3.855,5.114-7.271,8.52-11.411,8.52-2.911,0-5.661-1.664-8.919-5.4a.971.971,0,0,0-1.463,1.277,28.285,28.285,0,0,0,2.883,2.9l-.085,1.09H58.969ZM70.076,60.373l-3.566-7.5,2.905-.773,5.54,5.056Zm6.533-4.331-5.926-5.409.267-3.424a9.9,9.9,0,0,0,11.318,0l.267,3.421Z" transform="translate(0 0)" fill="#9b1f36"/>
      <path id="Trazado_721654" data-name="Trazado 721654" d="M297.489,210.032a.971.971,0,0,0-.971.971v1.821a.971.971,0,1,0,1.942,0V211A.971.971,0,0,0,297.489,210.032Z" transform="translate(-214.666 -182.836)" fill="#9b1f36"/>
      <path id="Trazado_721655" data-name="Trazado 721655" d="M200.325,210.032a.971.971,0,0,0-.971.971v1.821a.971.971,0,0,0,1.942,0V211A.971.971,0,0,0,200.325,210.032Z" transform="translate(-130.083 -182.836)" fill="#9b1f36"/>
      <path id="Trazado_721656" data-name="Trazado 721656" d="M180.312,183.583a2.823,2.823,0,0,1,3.987,0,.971.971,0,0,0,1.373-1.373,4.767,4.767,0,0,0-6.734,0,.971.971,0,0,0,1.373,1.373Z" transform="translate(-112.064 -157.404)" fill="#9b1f36"/>
      <path id="Trazado_721657" data-name="Trazado 721657" d="M278.475,183.583a2.823,2.823,0,0,1,3.987,0,.971.971,0,0,0,1.373-1.373,4.767,4.767,0,0,0-6.734,0,.971.971,0,1,0,1.373,1.373Z" transform="translate(-197.517 -157.404)" fill="#9b1f36"/>
      <path id="Trazado_721658" data-name="Trazado 721658" d="M236.471,257.836a4.4,4.4,0,0,0,3.988,0,.971.971,0,1,0-.882-1.731,2.457,2.457,0,0,1-2.224,0,.971.971,0,1,0-.882,1.731Z" transform="translate(-161.932 -222.852)" fill="#9b1f36"/>
      <path id="Trazado_721659" data-name="Trazado 721659" d="M224.209,299.563a.971.971,0,0,0,.338,1.331,6.939,6.939,0,0,0,7.194,0,.971.971,0,1,0-.993-1.669,5.024,5.024,0,0,1-5.207,0A.971.971,0,0,0,224.209,299.563Z" transform="translate(-151.601 -260.361)" fill="#9b1f36"/>
    </g>
  </g>
</svg>
