<svg xmlns="http://www.w3.org/2000/svg" width="100" height="100" viewBox="0 0 100 100">
  <g id="Grupo_968680" data-name="Grupo 968680" transform="translate(-354 -799)">
    <circle id="Elipse_4711" data-name="Elipse 4711" cx="50" cy="50" r="50" transform="translate(354 799)" fill="#b3eeef"/>
    <path id="growth" d="M61.342,83.523h-.405V52.817a2.228,2.228,0,0,0-2.226-2.226H57.29a70.016,70.016,0,0,0,4.76-5.807l.634.469a1.658,1.658,0,0,0,2.644-1.284l.2-6.861a1.658,1.658,0,0,0-2.186-1.619l-6.505,2.189a1.658,1.658,0,0,0-.458,2.9l1.041.771c-.94,1.284-1.936,2.544-2.97,3.756a.961.961,0,1,0,1.462,1.246c1.274-1.495,2.494-3.06,3.625-4.654a.961.961,0,0,0-.211-1.328l-1.4-1.036L63.6,37.43l-.173,5.979-1.01-.748a.961.961,0,0,0-1.355.215,68.794,68.794,0,0,1-24.4,21.157A68.791,68.791,0,0,1,5.248,71.66H2.882a.961.961,0,0,1,0-1.921H5.249a66.2,66.2,0,0,0,26.092-5.327A66.235,66.235,0,0,0,53.112,49.438.961.961,0,1,0,51.731,48.1,64.74,64.74,0,0,1,44,54.921H36.327A2.228,2.228,0,0,0,34.1,57.146v3.877q-1.286.64-2.6,1.226V60.885a2.228,2.228,0,0,0-2.226-2.226H21.607a2.228,2.228,0,0,0-2.226,2.226V66.26q-1.3.291-2.6.528V63.932a2.228,2.228,0,0,0-2.226-2.226H6.886A2.228,2.228,0,0,0,4.66,63.932v3.885H2.882a2.882,2.882,0,1,0,0,5.764H4.66v9.942H4.143A4.061,4.061,0,0,0,.087,87.579v2.632a1.652,1.652,0,0,0,1.65,1.65H63.749a1.652,1.652,0,0,0,1.65-1.65V87.579A4.061,4.061,0,0,0,61.342,83.523ZM36.022,57.146a.3.3,0,0,1,.3-.3H41.3q-2.556,1.716-5.276,3.184ZM21.3,60.885a.3.3,0,0,1,.3-.3H29.27a.3.3,0,0,1,.3.3v2.18A64.675,64.675,0,0,1,21.3,65.8V60.885ZM6.886,63.628H14.55a.3.3,0,0,1,.3.3v3.173a64.712,64.712,0,0,1-8.273.7v-3.87a.3.3,0,0,1,.3-.3ZM55.472,52.512h3.239a.305.305,0,0,1,.3.3V83.523H50.742V56.9q2.462-2.085,4.729-4.386ZM37.538,65.741A69.9,69.9,0,0,0,44.3,61.756v10.23a.961.961,0,1,0,1.921,0V60.429q1.325-.949,2.6-1.96V83.523h-2.6V76.082a.961.961,0,0,0-1.921,0v7.441H36.022V66.5Q36.784,66.128,37.538,65.741ZM21.3,71.715a70.936,70.936,0,0,0,8.273-2.477V83.523H21.3ZM31.5,68.5q1.313-.526,2.6-1.105V83.523H31.5ZM6.582,73.567a70.172,70.172,0,0,0,8.273-.651V76.1a.961.961,0,0,0,1.921,0V72.623q1.307-.218,2.6-.486V83.523h-2.6V80.2a.961.961,0,0,0-1.921,0v3.327H6.582Zm56.9,16.373H2.008V87.579a2.137,2.137,0,0,1,2.135-2.135h57.2a2.137,2.137,0,0,1,2.135,2.135Z" transform="translate(371 785.598)" fill="#9b1f36"/>
  </g>
</svg>
