<svg xmlns="http://www.w3.org/2000/svg" width="100" height="100" viewBox="0 0 100 100">
  <g id="Grupo_968683" data-name="Grupo 968683" transform="translate(-354 -799)">
    <circle id="Elipse_4711" data-name="Elipse 4711" cx="50" cy="50" r="50" transform="translate(354 799)" fill="#b3eeef"/>
    <g id="low-price" transform="translate(373.425 819.339)">
      <path id="Trazado_721660" data-name="Trazado 721660" d="M58.977,35.873A2.239,2.239,0,0,0,56.9,34.487H50.05V3.7A2.7,2.7,0,0,0,47.356,1H27.764A2.7,2.7,0,0,0,25.069,3.7v7.617A18.807,18.807,0,1,0,26.013,47.7l9.958,9.959a2.246,2.246,0,0,0,3.176,0L58.491,38.321a2.239,2.239,0,0,0,.487-2.447ZM3.8,29.632a17.01,17.01,0,1,1,17.01,17.01A17.03,17.03,0,0,1,3.8,29.632ZM57.22,37.05,37.877,56.393a.449.449,0,0,1-.635,0L27.9,47.049a18.807,18.807,0,0,0-1.033-35.223V3.695a.9.9,0,0,1,.9-.9H47.356a.9.9,0,0,1,.9.9V34.487a1.8,1.8,0,0,0,1.8,1.8H56.9a.449.449,0,0,1,.318.767Z" transform="translate(0)" fill="#9b1f36"/>
      <path id="Trazado_721661" data-name="Trazado 721661" d="M133.088,178.653h1.61a1.9,1.9,0,0,1,1.9,1.9.9.9,0,0,0,1.8,0,3.7,3.7,0,0,0-3.605-3.7V176a.9.9,0,0,0-1.8,0v.86a3.7,3.7,0,0,0-3.605,3.7v.828a3.7,3.7,0,0,0,3.7,3.7h1.61a1.9,1.9,0,0,1,1.9,1.9v.829a1.9,1.9,0,0,1-1.9,1.9h-1.61a1.9,1.9,0,0,1-1.9-1.9v-.077a.9.9,0,1,0-1.8,0v.077a3.7,3.7,0,0,0,3.605,3.7v.86a.9.9,0,1,0,1.8,0v-.86a3.7,3.7,0,0,0,3.605-3.7v-.829a3.7,3.7,0,0,0-3.7-3.7h-1.61a1.9,1.9,0,0,1-1.9-1.9v-.828A1.9,1.9,0,0,1,133.088,178.653Z" transform="translate(-113.086 -154.552)" fill="#9b1f36"/>
      <path id="Trazado_721662" data-name="Trazado 721662" d="M58.191,130.612A14.079,14.079,0,1,0,72.269,144.69,14.094,14.094,0,0,0,58.191,130.612Zm0,26.36A12.282,12.282,0,1,1,70.473,144.69,12.3,12.3,0,0,1,58.191,156.972Z" transform="translate(-37.383 -115.059)" fill="#9b1f36"/>
    </g>
  </g>
</svg>
