<svg xmlns="http://www.w3.org/2000/svg" width="100" height="100" viewBox="0 0 100 100">
  <g id="Grupo_968681" data-name="Grupo 968681" transform="translate(-354 -799)">
    <circle id="Elipse_4711" data-name="Elipse 4711" cx="50" cy="50" r="50" transform="translate(354 799)" fill="#b3eeef"/>
    <path id="cycle" d="M59.718,33.981A30.008,30.008,0,0,1,32.638,59.85q-1.357.12-2.7.12a29.741,29.741,0,0,1-18.2-6.2l.307,3.455A1.172,1.172,0,0,1,10.974,58.5c-.035,0-.07,0-.1,0A1.172,1.172,0,0,1,9.7,57.438l-.57-6.417A1.172,1.172,0,0,1,10.2,49.75l6.416-.57a1.172,1.172,0,0,1,.207,2.334l-3.75.333a27.423,27.423,0,0,0,16.867,5.779q1.241,0,2.494-.111A27.661,27.661,0,0,0,55.324,18.876a1.172,1.172,0,0,1,2.148-.938,30.088,30.088,0,0,1,2.246,16.043ZM46.777,8,43.23,8.31a1.172,1.172,0,0,0,.1,2.339c.035,0,.07,0,.1,0l6.417-.57A1.172,1.172,0,0,0,50.917,8.8l-.57-6.416a1.172,1.172,0,1,0-2.334.207l.323,3.643A30,30,0,0,0,.252,25.955,30.1,30.1,0,0,0,2.5,42a1.172,1.172,0,1,0,2.148-.938A27.658,27.658,0,0,1,46.777,8ZM38.809,29.931a8.78,8.78,0,1,1-8.78-8.78,8.79,8.79,0,0,1,8.78,8.78Zm-2.344,0a6.437,6.437,0,1,0-6.437,6.437,6.444,6.444,0,0,0,6.437-6.437Zm7.905,5.94a2.808,2.808,0,0,0,.614,3.1,2.368,2.368,0,0,1,0,3.345l-2.569,2.569a2.368,2.368,0,0,1-3.345,0A2.85,2.85,0,0,0,34.21,46.9a2.368,2.368,0,0,1-2.365,2.365H28.213A2.368,2.368,0,0,1,25.848,46.9a2.848,2.848,0,0,0-4.862-2.014,2.365,2.365,0,0,1-3.345,0l-2.569-2.569a2.368,2.368,0,0,1,0-3.345,2.85,2.85,0,0,0-2.014-4.862,2.368,2.368,0,0,1-2.365-2.365V28.115a2.368,2.368,0,0,1,2.365-2.365,2.85,2.85,0,0,0,2.014-4.862,2.368,2.368,0,0,1,0-3.345l2.569-2.569a2.365,2.365,0,0,1,3.345,0,2.85,2.85,0,0,0,4.862-2.014A2.368,2.368,0,0,1,28.213,10.6h3.632a2.368,2.368,0,0,1,2.365,2.365,2.85,2.85,0,0,0,4.862,2.014,2.368,2.368,0,0,1,3.345,0l2.569,2.569a2.368,2.368,0,0,1,0,3.345A2.85,2.85,0,0,0,47,25.75a2.368,2.368,0,0,1,2.365,2.365v3.632A2.368,2.368,0,0,1,47,34.112a2.808,2.808,0,0,0-2.628,1.759ZM47,31.769a.021.021,0,0,0,.021-.021V28.115A.021.021,0,0,0,47,28.094a5.194,5.194,0,0,1-3.671-8.863.021.021,0,0,0,0-.03l-2.569-2.569a.022.022,0,0,0-.03,0,5.193,5.193,0,0,1-8.862-3.671.021.021,0,0,0-.021-.021H28.213a.021.021,0,0,0-.021.021,5.194,5.194,0,0,1-8.863,3.671.024.024,0,0,0-.03,0L16.73,19.2a.021.021,0,0,0,0,.03,5.193,5.193,0,0,1-3.671,8.862.021.021,0,0,0-.021.021v3.632a.021.021,0,0,0,.021.021,5.194,5.194,0,0,1,3.671,8.863.021.021,0,0,0,0,.03L19.3,43.23a.024.024,0,0,0,.03,0A5.121,5.121,0,0,1,22.967,41.7a5.271,5.271,0,0,1,2.02.408,5.111,5.111,0,0,1,3.2,4.8.021.021,0,0,0,.021.021h3.632a.021.021,0,0,0,.021-.021,5.193,5.193,0,0,1,8.862-3.671.022.022,0,0,0,.03,0l2.568-2.568a.021.021,0,0,0,0-.03A5.194,5.194,0,0,1,47,31.769Z" transform="translate(374.015 819.034)" fill="#9b1f36"/>
  </g>
</svg>
