<svg xmlns="http://www.w3.org/2000/svg" width="100" height="100" viewBox="0 0 100 100">
  <g id="Grupo_961208" data-name="Grupo 961208" transform="translate(-220 -2103)">
    <circle id="Elipse_4712" data-name="Elipse 4712" cx="50" cy="50" r="50" transform="translate(220 2103)" fill="#b3eeef"/>
    <g id="maquina-de-coser" transform="translate(225.44 2108.765)">
      <path id="Trazado_709345" data-name="Trazado 709345" d="M79.114,53.869a6.521,6.521,0,0,0-6.521-6.521H12.581A6.521,6.521,0,0,0,6.06,53.869V68.052H41.906a9.781,9.781,0,0,1,9.781,9.781V96.255H43.506v12.39H9.992V96.255H9.32a3.211,3.211,0,0,0-1.611.427,3.259,3.259,0,0,0-1.65,2.833v10.658a3.26,3.26,0,0,0,3.26,3.26H75.855a3.26,3.26,0,0,0,3.26-3.26Z" transform="translate(-1.685 -29.73)" fill="#eee"/>
      <path id="Trazado_709346" data-name="Trazado 709346" d="M175,87.543a6.318,6.318,0,1,1,6.318-6.318A6.325,6.325,0,0,1,175,87.543Z" transform="translate(-111.288 -48.304)" fill="#afafaf"/>
      <path id="Trazado_709347" data-name="Trazado 709347" d="M49.2,197.57v12.39a2.281,2.281,0,0,1-2.282,2.282H13.4a2.281,2.281,0,0,1-2.282-2.282V198a3.211,3.211,0,0,1,1.611-.427H13.4v12.39H46.916V197.57Z" transform="translate(-5.095 -130.974)" fill="#afafaf"/>
      <path id="Trazado_709348" data-name="Trazado 709348" d="M25.789,111.07v6.195a3.262,3.262,0,0,1-3.26,3.26H9.32a3.262,3.262,0,0,1-3.26-3.26V111.07Z" transform="translate(-1.685 -72.676)" fill="#7d7b79"/>
      <path id="Trazado_709349" data-name="Trazado 709349" d="M6.06,111.07H25.789v2.282H6.06Z" transform="translate(-1.685 -72.676)" fill="#4c4944"/>
      <path id="Trazado_709350" data-name="Trazado 709350" d="M181.816,24.99H173.5V15.046a.978.978,0,0,1,.978-.978h6.358a.978.978,0,0,1,.978.978Z" transform="translate(-114.534 -7.301)" fill="#fc5d3d"/>
      <path id="Trazado_709351" data-name="Trazado 709351" d="M46.453,37.711H38.139V34.573a1.63,1.63,0,0,1,1.63-1.63h5.054a1.63,1.63,0,0,1,1.63,1.63Z" transform="translate(-23.305 -20.022)" fill="#f0c020"/>
      <circle id="Elipse_4863" data-name="Elipse 4863" cx="4.036" cy="4.036" r="4.036" transform="translate(59.68 28.885)" fill="#71c1e8"/>
      <path id="Trazado_709352" data-name="Trazado 709352" d="M32.451,140.07v3.1a1.631,1.631,0,0,1-1.63,1.63H26.84a1.631,1.631,0,0,1-1.63-1.63v-3.1Z" transform="translate(-14.591 -92.221)" fill="#f0c020"/>
      <path id="Trazado_709353" data-name="Trazado 709353" d="M25.21,140.07h7.241v2.282H25.21Z" transform="translate(-14.591 -92.221)" fill="#e8a61e"/>
      <path id="Trazado_709354" data-name="Trazado 709354" d="M236.589,76.74V88.752a3.262,3.262,0,0,1-3.26,3.26h-3.2V73.48h3.2A3.262,3.262,0,0,1,236.589,76.74Z" transform="translate(-152.699 -47.342)" fill="#f0c020"/>
      <path id="Trazado_709355" data-name="Trazado 709355" d="M230.13,73.48h2.282V92.012H230.13Z" transform="translate(-152.699 -47.342)" fill="#e8a61e"/>
      <path id="Trazado_709356" data-name="Trazado 709356" d="M51.634,193.2v12.716H18.12V193.2a1.631,1.631,0,0,1,1.63-1.63H50A1.631,1.631,0,0,1,51.634,193.2Z" transform="translate(-9.813 -126.93)" fill="#fc5d3d"/>
      <path id="Trazado_709357" data-name="Trazado 709357" d="M66.167,154.535c-1.2-.4-2.441-.744-3.137-3.743-.641,2.763-1.669,3.258-3.137,3.743,2.4.792,2.757,2.1,3.137,3.743C63.686,155.449,64.772,155,66.167,154.535Z" transform="translate(-37.966 -99.448)" fill="#f0c020"/>
      <path id="Trazado_709358" data-name="Trazado 709358" d="M60.58,156.85c-.348-1.5-.577-2.49-2.6-3.16a.807.807,0,0,1,0-1.531c1.22-.4,2.027-.67,2.6-3.16a.807.807,0,0,1,1.571,0c.591,2.547,1.474,2.787,2.6,3.16a.807.807,0,0,1,0,1.531c-1.177.389-2.027.67-2.6,3.16A.806.806,0,0,1,60.58,156.85Zm-.461-3.907a4.188,4.188,0,0,1,1.262,1.335,3.99,3.99,0,0,1,1.193-1.346,4.116,4.116,0,0,1-1.206-1.4A4,4,0,0,1,60.119,152.943Z" transform="translate(-36.302 -97.821)"/>
      <path id="Trazado_709359" data-name="Trazado 709359" d="M87.65,116.264a.815.815,0,0,1-.815-.815v-.978a.815.815,0,1,1,1.63,0v.978A.815.815,0,0,1,87.65,116.264Zm0-4.239a.815.815,0,0,1-.815-.815V59.144A2.448,2.448,0,0,0,84.389,56.7H24.376a.815.815,0,1,1,0-1.63H84.389a4.08,4.08,0,0,1,4.076,4.075V111.21a.815.815,0,0,1-.815.815Z" transform="translate(-13.48 -34.934)" fill="#fff"/>
      <path id="Trazado_709360" data-name="Trazado 709360" d="M109.225,208.525a.815.815,0,0,1-.815-.815v-3.586a.815.815,0,0,1,1.63,0v3.586A.815.815,0,0,1,109.225,208.525Zm0-6.847a.815.815,0,0,1-.815-.815v-.978a.815.815,0,0,1,1.63,0v.978A.815.815,0,0,1,109.225,201.678Z" transform="translate(-70.665 -131.985)" fill="#ffcbc3"/>
      <path id="Trazado_709361" data-name="Trazado 709361" d="M27.583,125.109H18.615a.815.815,0,0,1,0-1.63h8.153v-1.163a.815.815,0,1,1,1.63,0v1.978A.815.815,0,0,1,27.583,125.109Zm-12.228,0h-.978a.815.815,0,0,1,0-1.63h.978a.815.815,0,0,1,0,1.63Z" transform="translate(-6.74 -79.706)" fill="#efefef"/>
      <path id="Trazado_709362" data-name="Trazado 709362" d="M169.993,141.307h-1.549v-1.549a.815.815,0,0,0-1.63,0v1.549h-1.549a.815.815,0,0,0,0,1.63h1.549v5.217a.815.815,0,0,0,1.63,0v-5.217h1.549a.815.815,0,0,0,0-1.63Z" transform="translate(-108.433 -91.462)"/>
      <path id="Trazado_709363" data-name="Trazado 709363" d="M197.722,144.975h-1.549v-5.217a.815.815,0,1,0-1.63,0v5.217h-1.549a.815.815,0,1,0,0,1.63h1.549v1.549a.815.815,0,1,0,1.63,0V146.6h1.549a.815.815,0,0,0,0-1.63Z" transform="translate(-127.122 -91.462)"/>
      <path id="Trazado_709364" data-name="Trazado 709364" d="M34.629,207.068a.815.815,0,0,0-.815.815v2.608a.815.815,0,1,0,1.63,0v-2.608A.815.815,0,0,0,34.629,207.068Z" transform="translate(-20.39 -137.375)"/>
      <path id="Trazado_709365" data-name="Trazado 709365" d="M186.379,68.473a.815.815,0,0,0,.815-.815v-.676a.815.815,0,1,0-1.63,0v.676A.815.815,0,0,0,186.379,68.473Z" transform="translate(-122.663 -42.414)"/>
      <path id="Trazado_709366" data-name="Trazado 709366" d="M186.379,115.33a.815.815,0,0,0-.815.815v.676a.815.815,0,1,0,1.63,0v-.676A.815.815,0,0,0,186.379,115.33Z" transform="translate(-122.663 -75.548)"/>
      <path id="Trazado_709367" data-name="Trazado 709367" d="M203.028,75.778a.813.813,0,0,0,.576-.239l.478-.478a.815.815,0,0,0-1.153-1.153l-.478.478a.815.815,0,0,0,.576,1.392Z" transform="translate(-133.884 -47.47)"/>
      <path id="Trazado_709368" data-name="Trazado 709368" d="M168.841,110.3l.478-.478a.815.815,0,1,0-1.153-1.153l-.478.478a.815.815,0,0,0,1.153,1.153Z" transform="translate(-110.455 -70.899)"/>
      <path id="Trazado_709369" data-name="Trazado 709369" d="M209.925,93.415h.676a.815.815,0,0,0,0-1.63h-.676a.815.815,0,0,0,0,1.63Z" transform="translate(-138.533 -59.679)"/>
      <path id="Trazado_709370" data-name="Trazado 709370" d="M160.761,93.415h.676a.815.815,0,0,0,0-1.63h-.676a.815.815,0,0,0,0,1.63Z" transform="translate(-105.398 -59.679)"/>
      <path id="Trazado_709371" data-name="Trazado 709371" d="M203.506,110.542a.815.815,0,0,0,.576-1.391l-.478-.478a.815.815,0,0,0-1.153,1.153l.478.478A.812.812,0,0,0,203.506,110.542Z" transform="translate(-133.884 -70.9)"/>
      <path id="Trazado_709372" data-name="Trazado 709372" d="M168.165,75.539a.815.815,0,1,0,1.153-1.153l-.478-.478a.815.815,0,0,0-1.153,1.153Z" transform="translate(-110.454 -47.47)"/>
      <path id="Trazado_709373" data-name="Trazado 709373" d="M44.406,78.26H34.625a.815.815,0,0,0,0,1.63h9.781a.815.815,0,0,0,0-1.63Z" transform="translate(-20.387 -50.564)"/>
      <circle id="Elipse_4864" data-name="Elipse 4864" cx="0.815" cy="0.815" r="0.815" transform="translate(26.464 27.696)"/>
      <path id="Trazado_709374" data-name="Trazado 709374" d="M100.48,78.26H84.625a.815.815,0,0,0,0,1.63H100.48a.815.815,0,0,0,0-1.63Z" transform="translate(-54.085 -50.564)"/>
      <path id="Trazado_709375" data-name="Trazado 709375" d="M178.036,89.109a4.851,4.851,0,1,0-4.851-4.851A4.856,4.856,0,0,0,178.036,89.109Zm-.815-7.964v1.516a.815.815,0,1,0,1.63,0V81.145a3.221,3.221,0,1,1-1.63,0Z" transform="translate(-114.321 -51.337)"/>
      <circle id="Elipse_4865" data-name="Elipse 4865" cx="0.815" cy="0.815" r="0.815" transform="translate(32.385 63.825)"/>
      <circle id="Elipse_4866" data-name="Elipse 4866" cx="0.815" cy="0.815" r="0.815" transform="translate(83.075 35.104)"/>
      <path id="Trazado_709376" data-name="Trazado 709376" d="M84.7,29.4a4.081,4.081,0,0,0-4.076-4.075H78.245V24.21a7.344,7.344,0,0,0-7.336-7.336H68.1V7.745A1.8,1.8,0,0,0,66.3,5.952h-.285V4.05a.815.815,0,0,0-.815-.815H61.047a.815.815,0,0,0-.815.815v1.9h-.285a1.8,1.8,0,0,0-1.793,1.793v1.87H19.806V7.94a.815.815,0,1,0-1.63,0v4.166H16.464a2.448,2.448,0,0,0-2.445,2.445v2.323H10.9A7.344,7.344,0,0,0,3.56,24.21V44.588a4.08,4.08,0,0,0,4.075,4.075H9.8v2.282a2.448,2.448,0,0,0,2.445,2.445h1.175v6.52a.815.815,0,0,0,1.63,0V58.444h1.1a.815.815,0,0,0,0-1.63h-1.1V53.391H16.23a2.448,2.448,0,0,0,2.445-2.445V48.664h2.168a4.08,4.08,0,0,0,4.076-4.075v-5.38h15.3a8.976,8.976,0,0,1,8.966,8.966V65.781h-6.6a2.452,2.452,0,0,0-2.4-1.956h-3.73a.815.815,0,0,0,0,1.63h3.73a.817.817,0,0,1,.815.815v11.9H15.054V76.377a.815.815,0,1,0-1.63,0V78.17h-4.3V66.27a.817.817,0,0,1,.815-.815h3.487v1.793a.815.815,0,1,0,1.63,0V65.455H29.94a.815.815,0,1,0,0-1.63h-20a2.452,2.452,0,0,0-2.4,1.962A4.072,4.072,0,0,0,3.56,69.856V80.515A4.08,4.08,0,0,0,7.635,84.59H74.17a4.08,4.08,0,0,0,4.075-4.075c0-8.01,0-15.124,0-35.03h2.384A4.081,4.081,0,0,0,84.7,41.409v-2.23a.815.815,0,1,0-1.63,0v2.23a2.455,2.455,0,0,1-2.445,2.445H78.246v-16.9h2.383A2.455,2.455,0,0,1,83.075,29.4v3.26a.815.815,0,1,0,1.63,0ZM61.861,4.865h2.527V5.952H61.861Zm-2.079,9.868h3.342a.815.815,0,1,0,0-1.63H59.783V7.745a.163.163,0,0,1,.163-.163H66.3a.163.163,0,0,1,.163.163V9.136H63.125a.815.815,0,0,0,0,1.63h3.342v6.108H59.783ZM19.806,11.246H58.153v5.628H23.963V14.551a2.448,2.448,0,0,0-2.445-2.445H19.806Zm-4.157,3.305a.816.816,0,0,1,.815-.815h5.054a.816.816,0,0,1,.815.815v2.323H15.649Zm1.4,36.395a.816.816,0,0,1-.815.815H12.249a.816.816,0,0,1-.815-.815V48.664h5.611Zm6.244-6.358a2.448,2.448,0,0,1-2.445,2.445H7.635A2.448,2.448,0,0,1,5.19,44.588v-5.38h18.1Zm16.932-7.011H5.191V24.21A5.712,5.712,0,0,1,10.9,18.5H70.909a5.712,5.712,0,0,1,5.706,5.706V65.78h-25.8V48.174a10.609,10.609,0,0,0-10.6-10.6Zm36.4,42.937A2.448,2.448,0,0,1,74.17,82.96H7.635A2.448,2.448,0,0,1,5.19,80.515V69.856a2.452,2.452,0,0,1,2.3-2.441v11.57a.824.824,0,0,0,.815.815c.128,0,33.434,0,33.562,0a.807.807,0,0,0,.767-.81V67.411h33.98Z"/>
      <path id="Trazado_709377" data-name="Trazado 709377" d="M178.129,221.787a.815.815,0,0,0,.815-.815V219.2a.815.815,0,1,0-1.63,0v1.771A.815.815,0,0,0,178.129,221.787Z" transform="translate(-117.103 -145.003)"/>
      <path id="Trazado_709378" data-name="Trazado 709378" d="M186.379,221.787a.815.815,0,0,0,.815-.815V219.2a.815.815,0,1,0-1.63,0v1.771A.815.815,0,0,0,186.379,221.787Z" transform="translate(-122.663 -145.003)"/>
      <path id="Trazado_709379" data-name="Trazado 709379" d="M194.629,221.787a.815.815,0,0,0,.815-.815V219.2a.815.815,0,1,0-1.63,0v1.771A.815.815,0,0,0,194.629,221.787Z" transform="translate(-128.224 -145.003)"/>
    </g>
  </g>
</svg>
