<svg xmlns="http://www.w3.org/2000/svg" xmlns:xlink="http://www.w3.org/1999/xlink" width="100" height="100" viewBox="0 0 100 100">
  <defs>
    <clipPath id="clip-path">
      <path id="path3347" d="M0-682.665H76.222v76.222H0Z" transform="translate(0 682.665)"/>
    </clipPath>
  </defs>
  <g id="Grupo_961209" data-name="Grupo 961209" transform="translate(-220 -2103)">
    <circle id="Elipse_4712" data-name="Elipse 4712" cx="50" cy="50" r="50" transform="translate(220 2103)" fill="#b3eeef"/>
    <g id="g3333" transform="translate(231.889 2797.554)">
      <g id="g3335" transform="translate(54.061 -664.567)">
        <path id="path3337" d="M-88.343-81.58l-.329-3.275.329-.51-.548-5.876-.953-.592h-6.439l-.781.592-.548,5.876h0l.343.38-.343,3.573-.4.323-1.435,15.373.707.526h11.612l.618-.526-1.435-15.373Z" transform="translate(99.446 91.833)" fill="#dbedff"/>
      </g>
      <g id="g3339" transform="translate(54.061 -664.567)">
        <path id="path3341" d="M-47.343-85.48l.4-.323.343-3.573-.343-.38h0l.548-5.876.782-.592H-50.13l-.781.592-.548,5.876h0l.343.38-.343,3.573-.4.323-1.435,15.373.707.526h4.516l-.707-.526Z" transform="translate(53.293 96.224)" fill="#b5dcff"/>
      </g>
      <g id="g3343" transform="translate(0 -682.665)">
        <g id="g3345" transform="translate(0 0)" clip-path="url(#clip-path)">
          <g id="g3351" transform="translate(47.796 44.215)">
            <path id="path3353" d="M-186.807,0h-22.321l-1.158,1.126v25.7h23.968l.341-.305V.83a.83.83,0,0,0-.83-.83" transform="translate(210.286)" fill="#8479c2"/>
          </g>
          <g id="g3355" transform="translate(47.796 44.215)">
            <path id="path3357" d="M-49.847-6.606a.83.83,0,0,1,.83-.83h-5.938L-56.112-6.31V19.4h6.606l-.341-.305Z" transform="translate(56.112 7.436)" fill="#6e60b8"/>
          </g>
          <g id="g3359" transform="translate(55.219 14.414)">
            <path id="path3361" d="M-78.313,0h-9.066a.777.777,0,0,0-.777.777V3.5a.777.777,0,0,0,.777.777h9.066a.777.777,0,0,0,.777-.777V.777A.777.777,0,0,0-78.313,0" transform="translate(88.156)" fill="#b5dcff"/>
          </g>
          <g id="g3363" transform="translate(55.219 14.414)">
            <path id="path3365" d="M-34.744-27.842v-2.723a.776.776,0,0,1,.777-.776h-4.367a.776.776,0,0,0-.777.776v2.723a.776.776,0,0,0,.777.777h4.367a.776.776,0,0,1-.777-.777" transform="translate(39.111 31.341)" fill="#8bcaff"/>
          </g>
          <g id="g3367" transform="translate(36.65 1.116)">
            <path id="path3369" d="M-179.388-21.9a.666.666,0,0,1-.735-.365,4.365,4.365,0,0,0-6.834-1.242.662.662,0,0,1-.895,0,4.356,4.356,0,0,0-5.887,0,.661.661,0,0,1-.895,0,4.364,4.364,0,0,0-7.3,3.212,4.364,4.364,0,0,0,7.3,3.211.661.661,0,0,1,.895,0,4.357,4.357,0,0,0,5.888,0,.662.662,0,0,1,.894,0,4.357,4.357,0,0,0,5.422.376.668.668,0,0,1,.824.035,3.02,3.02,0,0,0,4.991-2.278,3.019,3.019,0,0,0-3.669-2.945" transform="translate(201.934 24.653)" fill="#dbedff"/>
          </g>
          <g id="g3371" transform="translate(36.65 3.779)">
            <path id="path3373" d="M-168.868-15.325a.669.669,0,0,0-.824-.035,4.357,4.357,0,0,1-5.422-.375.662.662,0,0,0-.894,0,4.356,4.356,0,0,1-5.888,0,.661.661,0,0,0-.9,0,4.388,4.388,0,0,1-6.974-1.518,4.406,4.406,0,0,0-.328,1.693,4.364,4.364,0,0,0,7.3,3.212.661.661,0,0,1,.9,0,4.356,4.356,0,0,0,5.888,0,.662.662,0,0,1,.894,0,4.357,4.357,0,0,0,5.422.375.669.669,0,0,1,.824.035,3.02,3.02,0,0,0,4.991-2.278,2.98,2.98,0,0,0-.514-1.685,3.044,3.044,0,0,1-4.477.577" transform="translate(190.093 17.251)" fill="#b5dcff"/>
          </g>
          <g id="g3375" transform="translate(55.495 24.566)">
            <path id="path3377" d="M0-34.02H10.068l-.4-4.276H.4Z" transform="translate(0 38.296)" fill="#f27182"/>
          </g>
          <g id="g3379" transform="translate(55.495 24.566)">
            <path id="path3381" d="M-3.177,0l-.4,4.276H.94L1.339,0Z" transform="translate(3.576)" fill="#ed5469"/>
          </g>
          <path id="path3383" d="M482.4-82.953h13.336v-4.476H482.4Z" transform="translate(-428.535 153.889)" fill="#00d2fc"/>
          <path id="path3385" d="M482.4-82.953h6.273v-4.476H482.4Z" transform="translate(-428.535 153.889)" fill="#00c2fb"/>
          <path id="path3387" d="M482.4-156.172h13.336v-4.476H482.4Z" transform="translate(-428.535 218.932)" fill="#00d2fc"/>
          <path id="path3389" d="M482.4-156.172h6.273v-4.476H482.4Z" transform="translate(-428.535 218.932)" fill="#00c2fb"/>
          <g id="g3391" transform="translate(33.504 36.697)">
            <path id="path3393" d="M-112.456-.781l-13.131,6.61a.907.907,0,0,0-.5.81l-.5.526V33.471h14.838l.612-.305V.03a.907.907,0,0,0-1.315-.81" transform="translate(126.59 0.879)" fill="#ffc365"/>
          </g>
          <path id="path3395" d="M482.4-118.214h13.336V-122.3H482.4Z" transform="translate(-428.535 184.867)" fill="#62ddfc"/>
          <path id="path3397" d="M482.4-118.214h6.273V-122.3H482.4Z" transform="translate(-428.535 184.867)" fill="#00d2fc"/>
          <g id="g3399" transform="translate(53.861 53.939)">
            <path id="path3401" d="M-104.518-.257h-12.937a.7.7,0,0,1-.2-.032v4.54h13.336V-.289a.7.7,0,0,1-.2.032" transform="translate(117.654 0.289)" fill="#62ddfc"/>
          </g>
          <g id="g3403" transform="translate(53.861 53.939)">
            <path id="path3405" d="M-49.165-.257H-55.25a.179.179,0,0,1-.094-.032v4.54h6.273V-.289a.179.179,0,0,1-.094.032" transform="translate(55.344 0.289)" fill="#00d2fc"/>
          </g>
          <g id="g3407" transform="translate(53.284 50.145)">
            <path id="path3409" d="M-109.109,0h-12.937a.777.777,0,0,0-.777.777V3.5a.777.777,0,0,0,.777.777h12.937a.777.777,0,0,0,.777-.777V.777A.777.777,0,0,0-109.109,0" transform="translate(122.822)" fill="#dbedff"/>
          </g>
          <g id="g3411" transform="translate(53.284 50.145)">
            <path id="path3413" d="M-48.324-27.842v-2.723a.776.776,0,0,1,.777-.776h-6.074a.776.776,0,0,0-.777.776v2.723a.776.776,0,0,0,.777.777h6.074a.776.776,0,0,1-.777-.777" transform="translate(54.397 31.341)" fill="#b5dcff"/>
          </g>
          <g id="g3415" transform="translate(34.008 36.697)">
            <path id="path3417" d="M-33.28-71.324a.908.908,0,0,1,.5-.81L-22.517-77.3V-79.38a.907.907,0,0,0-1.315-.81l-13.131,6.61a.908.908,0,0,0-.5.81v26.526h4.183Z" transform="translate(37.463 80.289)" fill="#ffa90f"/>
          </g>
          <g id="g3419" transform="translate(18.419 36.697)">
            <path id="path3421" d="M-113.572-.781-126.7,5.83a.908.908,0,0,0-.5.81l-.645.526v26.7h14.44l1.149-.7V.03a.907.907,0,0,0-1.315-.81" transform="translate(127.846 0.879)" fill="#ffc365"/>
          </g>
          <g id="g3423" transform="translate(19.063 36.697)">
            <path id="path3425" d="M-33.281-71.324a.907.907,0,0,1,.5-.81L-22.519-77.3V-79.38a.907.907,0,0,0-1.315-.81l-13.131,6.61a.908.908,0,0,0-.5.81v26.526h4.183Z" transform="translate(37.464 80.289)" fill="#ffa90f"/>
          </g>
          <g id="g3427" transform="translate(4.118 36.697)">
            <path id="path3429" d="M-108.443-.781l-13.131,6.61a.908.908,0,0,0-.5.81V33.166h14.945V.03a.907.907,0,0,0-1.315-.81" transform="translate(122.073 0.879)" fill="#ffc365"/>
          </g>
          <g id="g3431" transform="translate(4.118 36.697)">
            <path id="path3433" d="M-33.28-71.324a.908.908,0,0,1,.5-.81L-22.518-77.3V-79.38a.907.907,0,0,0-1.315-.81l-13.131,6.61a.908.908,0,0,0-.5.81v26.526h4.183Z" transform="translate(37.463 80.289)" fill="#ffa90f"/>
          </g>
          <g id="g3435" transform="translate(1.117 70.593)">
            <path id="path3437" d="M-580.093,0h-71.831A1.079,1.079,0,0,0-653,1.079V3.434a1.079,1.079,0,0,0,1.079,1.079h71.831a1.079,1.079,0,0,0,1.079-1.079V1.079A1.079,1.079,0,0,0-580.093,0" transform="translate(653.002)" fill="#dbedff"/>
          </g>
          <g id="g3439" transform="translate(1.117 71.77)">
            <path id="path3441" d="M-580.093-8.586h-71.831A1.079,1.079,0,0,1-653-9.665v2.256a1.079,1.079,0,0,0,1.079,1.079h71.831a1.079,1.079,0,0,0,1.079-1.079V-9.665a1.079,1.079,0,0,1-1.079,1.079" transform="translate(653.002 9.665)" fill="#b5dcff"/>
          </g>
          <g id="g3443" transform="translate(38.042 47.544)">
            <path id="path3445" d="M-47.382,0h-5.033a.922.922,0,0,0-.922.922V6.551a.922.922,0,0,0,.922.922h5.033a.922.922,0,0,0,.922-.922V.922A.922.922,0,0,0-47.382,0" transform="translate(53.337)" fill="#00d2fc"/>
          </g>
          <g id="g3447" transform="translate(23.097 47.544)">
            <path id="path3449" d="M-47.381,0h-5.033a.922.922,0,0,0-.922.922V6.551a.922.922,0,0,0,.922.922h5.033a.922.922,0,0,0,.922-.922V.922A.922.922,0,0,0-47.381,0" transform="translate(53.336)" fill="#00d2fc"/>
          </g>
          <g id="g3451" transform="translate(8.152 47.544)">
            <path id="path3453" d="M-47.382,0h-5.033a.922.922,0,0,0-.922.922V6.551a.922.922,0,0,0,.922.922h5.033a.922.922,0,0,0,.922-.922V.922A.922.922,0,0,0-47.382,0" transform="translate(53.337)" fill="#00d2fc"/>
          </g>
          <g id="g3455" transform="translate(38.042 47.544)">
            <path id="path3457" d="M-27.359-52.119v-5.629a.922.922,0,0,1,.922-.922h-3.438a.922.922,0,0,0-.922.922v5.629a.922.922,0,0,0,.922.922h3.438a.922.922,0,0,1-.922-.922" transform="translate(30.797 58.669)" fill="#00c2fb"/>
          </g>
          <g id="g3459" transform="translate(23.097 47.544)">
            <path id="path3461" d="M-27.359-52.119v-5.629a.922.922,0,0,1,.922-.922h-3.438a.922.922,0,0,0-.922.922v5.629a.922.922,0,0,0,.922.922h3.438a.922.922,0,0,1-.922-.922" transform="translate(30.797 58.669)" fill="#00c2fb"/>
          </g>
          <g id="g3463" transform="translate(8.152 47.544)">
            <path id="path3465" d="M-27.359-52.119v-5.629a.922.922,0,0,1,.922-.922h-3.439a.922.922,0,0,0-.922.922v5.629a.922.922,0,0,0,.922.922h3.439a.922.922,0,0,1-.922-.922" transform="translate(30.797 58.669)" fill="#00c2fb"/>
          </g>
          <g id="g3467" transform="translate(19.062 36.697)">
            <path id="path3469" d="M-108.443-.781l-13.131,6.61a.908.908,0,0,0-.5.81V33.166h14.945V.03A.907.907,0,0,0-108.443-.781Z" transform="translate(122.073 0.879)" fill="none" stroke="#000" stroke-linecap="round" stroke-linejoin="round" stroke-miterlimit="10" stroke-width="2.5"/>
          </g>
          <g id="g3471" transform="translate(8.151 47.544)">
            <path id="path3473" d="M-47.382,0h-5.033a.922.922,0,0,0-.922.922V6.551a.922.922,0,0,0,.922.922h5.033a.922.922,0,0,0,.922-.922V.922A.922.922,0,0,0-47.382,0Z" transform="translate(53.337)" fill="none" stroke="#000" stroke-linecap="round" stroke-linejoin="round" stroke-miterlimit="10" stroke-width="2.5"/>
          </g>
          <g id="g3475" transform="translate(4.117 36.697)">
            <path id="path3477" d="M-108.443-.781l-13.131,6.61a.908.908,0,0,0-.5.81V33.166h14.945V.03A.907.907,0,0,0-108.443-.781Z" transform="translate(122.073 0.879)" fill="none" stroke="#000" stroke-linecap="round" stroke-linejoin="round" stroke-miterlimit="10" stroke-width="2.5"/>
          </g>
          <g id="g3479" transform="translate(23.097 47.544)">
            <path id="path3481" d="M-47.381,0h-5.033a.922.922,0,0,0-.922.922V6.551a.922.922,0,0,0,.922.922h5.033a.922.922,0,0,0,.922-.922V.922A.922.922,0,0,0-47.381,0Z" transform="translate(53.336)" fill="none" stroke="#000" stroke-linecap="round" stroke-linejoin="round" stroke-miterlimit="10" stroke-width="2.5"/>
          </g>
          <g id="g3483" transform="translate(34.008 36.697)">
            <path id="path3485" d="M-108.443-.781l-13.131,6.61a.908.908,0,0,0-.5.81V33.166h14.945V.03A.907.907,0,0,0-108.443-.781Z" transform="translate(122.073 0.879)" fill="none" stroke="#000" stroke-linecap="round" stroke-linejoin="round" stroke-miterlimit="10" stroke-width="2.5"/>
          </g>
          <g id="g3487" transform="translate(38.042 47.544)">
            <path id="path3489" d="M-47.382,0h-5.033a.922.922,0,0,0-.922.922V6.551a.922.922,0,0,0,.922.922h5.033a.922.922,0,0,0,.922-.922V.922A.922.922,0,0,0-47.382,0Z" transform="translate(53.337)" fill="none" stroke="#000" stroke-linecap="round" stroke-linejoin="round" stroke-miterlimit="10" stroke-width="2.5"/>
          </g>
          <g id="g3491" transform="translate(48.953 44.215)">
            <path id="path3493" d="M-177.594,0h-22.321V26.526h23.151V.83A.83.83,0,0,0-177.594,0Z" transform="translate(199.915)" fill="none" stroke="#000" stroke-linecap="round" stroke-linejoin="round" stroke-miterlimit="10" stroke-width="2.5"/>
          </g>
          <g id="g3495" transform="translate(53.283 50.145)">
            <path id="path3497" d="M-109.109,0h-12.937a.776.776,0,0,0-.777.777V3.5a.776.776,0,0,0,.777.777h12.937a.776.776,0,0,0,.777-.777V.777A.776.776,0,0,0-109.109,0Z" transform="translate(122.822)" fill="none" stroke="#000" stroke-linecap="round" stroke-linejoin="round" stroke-miterlimit="10" stroke-width="2.5"/>
          </g>
          <g id="g3499" transform="translate(55.219 14.414)">
            <path id="path3501" d="M-78.313,0h-9.066a.776.776,0,0,0-.777.777V3.5a.776.776,0,0,0,.777.777h9.066a.776.776,0,0,0,.777-.777V.777A.776.776,0,0,0-78.313,0Z" transform="translate(88.156)" fill="none" stroke="#000" stroke-linecap="round" stroke-linejoin="round" stroke-miterlimit="10" stroke-width="2.5"/>
          </g>
          <path id="path3503" d="M482.389-81.6h13.336v-4.088H482.389Z" transform="translate(-428.529 152.346)" fill="none" stroke="#000" stroke-linecap="round" stroke-linejoin="round" stroke-miterlimit="10" stroke-width="2.5"/>
          <g id="g3505" transform="translate(53.86 54.391)">
            <path id="path3507" d="M-104.519-.232h-12.937a.769.769,0,0,1-.2-.029V3.826h13.336V-.261A.769.769,0,0,1-104.519-.232Z" transform="translate(117.656 0.261)" fill="none" stroke="#000" stroke-linecap="round" stroke-linejoin="round" stroke-miterlimit="10" stroke-width="2.5"/>
          </g>
          <path id="path3509" d="M482.389-154.823h13.336v-4.088H482.389Z" transform="translate(-428.529 217.389)" fill="none" stroke="#000" stroke-linecap="round" stroke-linejoin="round" stroke-miterlimit="10" stroke-width="2.5"/>
          <path id="path3511" d="M482.389-118.214h13.336V-122.3H482.389Z" transform="translate(-428.529 184.867)" fill="none" stroke="#000" stroke-linecap="round" stroke-linejoin="round" stroke-miterlimit="10" stroke-width="2.5"/>
          <g id="g3513" transform="translate(55.495 24.566)">
            <path id="path3515" d="M0-34.02H10.068l-.4-4.276H.4Z" transform="translate(0 38.296)" fill="none" stroke="#000" stroke-linecap="round" stroke-linejoin="round" stroke-miterlimit="10" stroke-width="2.5"/>
          </g>
          <g id="g3517" transform="translate(36.65 1.116)">
            <path id="path3519" d="M-179.386-21.9a.666.666,0,0,1-.735-.365,4.365,4.365,0,0,0-6.833-1.242.662.662,0,0,1-.895,0,4.356,4.356,0,0,0-5.887,0,.661.661,0,0,1-.9,0,4.364,4.364,0,0,0-7.3,3.212,4.364,4.364,0,0,0,7.3,3.211.661.661,0,0,1,.9,0,4.356,4.356,0,0,0,5.888,0,.662.662,0,0,1,.894,0,4.357,4.357,0,0,0,5.422.376.669.669,0,0,1,.824.035,3.02,3.02,0,0,0,4.991-2.278A3.019,3.019,0,0,0-179.386-21.9Z" transform="translate(201.933 24.653)" fill="none" stroke="#000" stroke-linecap="round" stroke-linejoin="round" stroke-miterlimit="10" stroke-width="2.5"/>
          </g>
          <g id="g3521" transform="translate(1.116 70.741)">
            <path id="path3523" d="M-315.067-34.72h33.31a1.079,1.079,0,0,0,1.079-1.079V-38a1.079,1.079,0,0,0-1.079-1.079h-71.831A1.079,1.079,0,0,0-354.667-38V-35.8a1.079,1.079,0,0,0,1.079,1.079h33.31" transform="translate(354.667 39.084)" fill="none" stroke="#000" stroke-linecap="round" stroke-linejoin="round" stroke-miterlimit="10" stroke-width="2.5"/>
          </g>
          <g id="g3525" transform="translate(54.06 18.69)">
            <path id="path3527" d="M-94.788-115.827l-1.359-14.558h-8.173L-106.7-104.86h12.937l-.537-5.757" transform="translate(106.701 130.385)" fill="none" stroke="#000" stroke-linecap="round" stroke-linejoin="round" stroke-miterlimit="10" stroke-width="2.5"/>
          </g>
        </g>
      </g>
    </g>
  </g>
</svg>
