<svg xmlns="http://www.w3.org/2000/svg" xmlns:xlink="http://www.w3.org/1999/xlink" width="451.826" height="270" viewBox="0 0 451.826 270">
  <defs>
    <clipPath id="clip-path">
      <rect id="Rectángulo_36297" data-name="Rectángulo 36297" width="329.169" height="220.952" fill="none"/>
    </clipPath>
    <clipPath id="clip-path-3">
      <rect id="Rectángulo_36237" data-name="Rectángulo 36237" width="72.079" height="84.053" fill="none"/>
    </clipPath>
  </defs>
  <g id="Grupo_968697" data-name="Grupo 968697" transform="translate(-285 -748)">
    <rect id="BG" width="451.826" height="270" transform="translate(285 748)" fill="#def8f8"/>
    <g id="Grupo_968696" data-name="Grupo 968696" transform="translate(327.325 772.917)">
      <g id="Grupo_968695" data-name="Grupo 968695" clip-path="url(#clip-path)">
        <g id="Grupo_968694" data-name="Grupo 968694">
          <g id="Grupo_968693" data-name="Grupo 968693" clip-path="url(#clip-path)">
            <path id="Trazado_721682" data-name="Trazado 721682" d="M304.73,198.17H26.841C8.163,171.577-2.6,136.754.541,104.409s19.531-63.535,45.48-83.1S107.313-5.37,138.349,4.263c30.994,9.619,56.921,34.634,89.257,37.376,13.249,1.123,26.476-1.663,39.727-2.769S294.758,38.586,305.8,46c14.107,9.471,19.813,27.383,22.07,44.223,4.988,37.233-4.694,75.222-23.137,107.949" transform="translate(0 0)" fill="#e2ded7"/>
            <path id="Trazado_721683" data-name="Trazado 721683" d="M252.181,186.519H230.327A1.516,1.516,0,0,1,228.811,185v-6.165a1.516,1.516,0,0,1,1.516-1.516h21.854a1.516,1.516,0,0,1,1.516,1.516V185a1.516,1.516,0,0,1-1.516,1.516" transform="translate(-113.204 -87.73)" fill="#d0caba"/>
            <path id="Trazado_721684" data-name="Trazado 721684" d="M305.41,186.519H283.557A1.516,1.516,0,0,1,282.041,185v-6.165a1.516,1.516,0,0,1,1.516-1.516H305.41a1.516,1.516,0,0,1,1.516,1.516V185a1.516,1.516,0,0,1-1.516,1.516" transform="translate(-139.539 -87.73)" fill="#d0caba"/>
            <path id="Trazado_721685" data-name="Trazado 721685" d="M279.076,208.356H257.222a1.516,1.516,0,0,1-1.516-1.516v-6.165a1.516,1.516,0,0,1,1.516-1.516h21.854a1.516,1.516,0,0,1,1.516,1.516v6.165a1.516,1.516,0,0,1-1.516,1.516" transform="translate(-126.51 -98.533)" fill="#d0caba"/>
            <path id="Trazado_721686" data-name="Trazado 721686" d="M279.076,164.923H257.222a1.516,1.516,0,0,1-1.516-1.516v-6.165a1.516,1.516,0,0,1,1.516-1.516h21.854a1.516,1.516,0,0,1,1.516,1.516v6.165a1.516,1.516,0,0,1-1.516,1.516" transform="translate(-126.51 -77.045)" fill="#d0caba"/>
            <path id="Trazado_721687" data-name="Trazado 721687" d="M74.054,221.519H52.2A1.516,1.516,0,0,1,50.685,220v-6.165a1.516,1.516,0,0,1,1.516-1.516H74.054a1.516,1.516,0,0,1,1.516,1.516V220a1.516,1.516,0,0,1-1.516,1.516" transform="translate(-25.076 -105.046)" fill="#d0caba"/>
            <path id="Trazado_721688" data-name="Trazado 721688" d="M127.283,221.519H105.43A1.516,1.516,0,0,1,103.914,220v-6.165a1.516,1.516,0,0,1,1.516-1.516h21.854a1.516,1.516,0,0,1,1.516,1.516V220a1.516,1.516,0,0,1-1.516,1.516" transform="translate(-51.411 -105.046)" fill="#d0caba"/>
            <path id="Trazado_721689" data-name="Trazado 721689" d="M100.95,243.356H79.1a1.516,1.516,0,0,1-1.516-1.516v-6.165a1.516,1.516,0,0,1,1.516-1.516H100.95a1.516,1.516,0,0,1,1.516,1.516v6.165a1.516,1.516,0,0,1-1.516,1.516" transform="translate(-38.383 -115.85)" fill="#d0caba"/>
            <path id="Trazado_721690" data-name="Trazado 721690" d="M100.95,199.923H79.1a1.516,1.516,0,0,1-1.516-1.516v-6.165a1.516,1.516,0,0,1,1.516-1.516H100.95a1.516,1.516,0,0,1,1.516,1.516v6.165a1.516,1.516,0,0,1-1.516,1.516" transform="translate(-38.383 -94.361)" fill="#d0caba"/>
            <path id="Trazado_721691" data-name="Trazado 721691" d="M55.555,92.85H33.7a1.516,1.516,0,0,1-1.516-1.516V85.169A1.516,1.516,0,0,1,33.7,83.653H55.555a1.516,1.516,0,0,1,1.516,1.516v6.165a1.516,1.516,0,0,1-1.516,1.516" transform="translate(-15.924 -41.387)" fill="#d0caba"/>
            <path id="Trazado_721692" data-name="Trazado 721692" d="M108.783,92.85H86.93a1.516,1.516,0,0,1-1.516-1.516V85.169a1.516,1.516,0,0,1,1.516-1.516h21.854a1.516,1.516,0,0,1,1.516,1.516v6.165a1.516,1.516,0,0,1-1.516,1.516" transform="translate(-42.258 -41.387)" fill="#d0caba"/>
            <path id="Trazado_721693" data-name="Trazado 721693" d="M82.45,114.687H60.6a1.516,1.516,0,0,1-1.516-1.516v-6.165A1.516,1.516,0,0,1,60.6,105.49H82.45a1.516,1.516,0,0,1,1.516,1.516v6.165a1.516,1.516,0,0,1-1.516,1.516" transform="translate(-29.23 -52.191)" fill="#d0caba"/>
            <path id="Trazado_721694" data-name="Trazado 721694" d="M544.95,263.543H523.1a1.515,1.515,0,0,1-1.516-1.516v-6.165a1.516,1.516,0,0,1,1.516-1.516H544.95a1.516,1.516,0,0,1,1.516,1.516v6.165a1.515,1.515,0,0,1-1.516,1.516" transform="translate(-258.051 -125.837)" fill="#d0caba"/>
            <path id="Trazado_721695" data-name="Trazado 721695" d="M598.179,263.543H576.326a1.515,1.515,0,0,1-1.516-1.516v-6.165a1.516,1.516,0,0,1,1.516-1.516h21.854a1.516,1.516,0,0,1,1.516,1.516v6.165a1.515,1.515,0,0,1-1.516,1.516" transform="translate(-284.386 -125.837)" fill="#d0caba"/>
            <path id="Trazado_721696" data-name="Trazado 721696" d="M571.845,285.381H549.992a1.516,1.516,0,0,1-1.516-1.516V277.7a1.516,1.516,0,0,1,1.516-1.516h21.854a1.516,1.516,0,0,1,1.516,1.516v6.165a1.516,1.516,0,0,1-1.516,1.516" transform="translate(-271.357 -136.641)" fill="#d0caba"/>
            <path id="Trazado_721697" data-name="Trazado 721697" d="M571.845,241.948H549.992a1.516,1.516,0,0,1-1.516-1.516v-6.165a1.516,1.516,0,0,1,1.516-1.516h21.854a1.516,1.516,0,0,1,1.516,1.516v6.165a1.516,1.516,0,0,1-1.516,1.516" transform="translate(-271.357 -115.153)" fill="#d0caba"/>
            <path id="Trazado_721698" data-name="Trazado 721698" d="M362.536,87.206H340.682a1.516,1.516,0,0,1-1.516-1.516V79.525a1.516,1.516,0,0,1,1.516-1.516h21.854a1.516,1.516,0,0,1,1.516,1.516V85.69a1.516,1.516,0,0,1-1.516,1.516" transform="translate(-167.802 -38.595)" fill="#d0caba"/>
            <path id="Trazado_721699" data-name="Trazado 721699" d="M336.2,109.043H314.349a1.516,1.516,0,0,1-1.516-1.516v-6.165a1.516,1.516,0,0,1,1.516-1.516H336.2a1.516,1.516,0,0,1,1.516,1.516v6.165a1.516,1.516,0,0,1-1.516,1.516" transform="translate(-154.773 -49.399)" fill="#d0caba"/>
            <path id="Trazado_721700" data-name="Trazado 721700" d="M336.2,65.61H314.349a1.516,1.516,0,0,1-1.516-1.516V57.929a1.516,1.516,0,0,1,1.516-1.516H336.2a1.516,1.516,0,0,1,1.516,1.516v6.165A1.516,1.516,0,0,1,336.2,65.61" transform="translate(-154.773 -27.91)" fill="#d0caba"/>
            <path id="Trazado_721701" data-name="Trazado 721701" d="M311.24,283.55H289.387a1.516,1.516,0,0,1-1.516-1.516v-6.165a1.516,1.516,0,0,1,1.516-1.516H311.24a1.516,1.516,0,0,1,1.516,1.516v6.165a1.516,1.516,0,0,1-1.516,1.516" transform="translate(-142.424 -135.736)" fill="#d0caba"/>
            <path id="Trazado_721702" data-name="Trazado 721702" d="M364.469,283.55H342.615a1.516,1.516,0,0,1-1.516-1.516v-6.165a1.516,1.516,0,0,1,1.516-1.516h21.854a1.516,1.516,0,0,1,1.516,1.516v6.165a1.516,1.516,0,0,1-1.516,1.516" transform="translate(-168.758 -135.736)" fill="#d0caba"/>
            <path id="Trazado_721703" data-name="Trazado 721703" d="M338.136,305.387H316.282a1.516,1.516,0,0,1-1.516-1.516v-6.165a1.516,1.516,0,0,1,1.516-1.516h21.854a1.516,1.516,0,0,1,1.516,1.516v6.165a1.516,1.516,0,0,1-1.516,1.516" transform="translate(-155.73 -146.539)" fill="#d0caba"/>
            <path id="Trazado_721704" data-name="Trazado 721704" d="M338.136,261.954H316.282a1.516,1.516,0,0,1-1.516-1.516v-6.165a1.516,1.516,0,0,1,1.516-1.516h21.854a1.516,1.516,0,0,1,1.516,1.516v6.165a1.516,1.516,0,0,1-1.516,1.516" transform="translate(-155.73 -125.051)" fill="#d0caba"/>
            <rect id="Rectángulo_36233" data-name="Rectángulo 36233" width="101.516" height="132.617" transform="translate(40.313 1.657)" fill="#bba389"/>
            <rect id="Rectángulo_36234" data-name="Rectángulo 36234" width="88.38" height="119.481" transform="translate(46.881 8.225)" fill="#7dd3e9"/>
            <rect id="Rectángulo_36235" data-name="Rectángulo 36235" width="5.262" height="132.617" transform="translate(141.829 1.657)" fill="#a08b7c"/>
            <rect id="Rectángulo_36236" data-name="Rectángulo 36236" width="5.274" height="119.481" transform="translate(46.881 8.225)" fill="#a08b7c"/>
            <g id="Grupo_968692" data-name="Grupo 968692" transform="translate(57.668 14.195)" opacity="0.4">
              <g id="Grupo_968691" data-name="Grupo 968691">
                <g id="Grupo_968690" data-name="Grupo 968690" clip-path="url(#clip-path-3)">
                  <path id="Trazado_721705" data-name="Trazado 721705" d="M186.217,30.62a2.526,2.526,0,0,0-2.526-2.526H116.665a2.526,2.526,0,0,0-2.526,2.526v79a2.526,2.526,0,0,0,2.526,2.526,12.511,12.511,0,0,0,12.511-12.511V48.444a2.526,2.526,0,0,1,2.526-2.526H170.92A15.3,15.3,0,0,0,186.217,30.62Z" transform="translate(-114.138 -28.094)" fill="#fff"/>
                </g>
              </g>
            </g>
            <rect id="Rectángulo_36238" data-name="Rectángulo 36238" width="101.516" height="6.568" transform="translate(40.313 44.527)" fill="#bba389"/>
            <path id="Trazado_721706" data-name="Trazado 721706" d="M224.009,77.225a2.021,2.021,0,0,0-1.954-1.5h-9.5a2.02,2.02,0,0,0-1.959,1.527l-.444,1.757h14.33Z" transform="translate(-103.971 -37.463)" fill="#422c4f"/>
            <path id="Trazado_721707" data-name="Trazado 721707" d="M223.745,156.628l-2.2-4.187a27.128,27.128,0,0,1-2.731-17.233,16.273,16.273,0,0,1,3.814-7.958l.322-.367a15.311,15.311,0,0,0,1.824-17.61l-2.047-3.631a30.7,30.7,0,0,1-2.178-4.941A18.5,18.5,0,0,0,207.6,88.879l-3.646-.917a3.031,3.031,0,0,1-2.192-2.164l-.946-3.577H186.483l-.99,3.923a3.031,3.031,0,0,1-2.268,2.215l-6.676,1.516A18.5,18.5,0,0,0,162.81,103l-.389,1.409a3.032,3.032,0,0,0,1.752,3.6l6.19,2.59a3.032,3.032,0,0,1,1.774,2.076l5.621,22.95a27.121,27.121,0,0,1-1.369,17.032l-3.454,8.156a52.744,52.744,0,0,0-2.547,33.58l4.628,18.185h48.206l4.763-17.592a52.744,52.744,0,0,0-4.241-38.355" transform="translate(-80.304 -40.679)" fill="#454f6b"/>
            <path id="Trazado_721708" data-name="Trazado 721708" d="M260.721,157.339a11.5,11.5,0,0,0,6.186,7.114,10.862,10.862,0,0,0,3.735.781c.215-.279.436-.553.669-.819l.322-.367a15.283,15.283,0,0,0,2.806-4.7,10.251,10.251,0,0,1-13.718-2.009" transform="translate(-128.991 -77.843)" fill="#422c4f"/>
            <path id="Trazado_721709" data-name="Trazado 721709" d="M225.3,163.388a12.136,12.136,0,0,1-10.017-3.775,10.743,10.743,0,0,0,6.038,6.555,9.889,9.889,0,0,0,8.5-.816c2.511-1.538,4.165-4.808,4.5-7.734a12.135,12.135,0,0,1-9.017,5.77" transform="translate(-106.508 -77.981)" fill="#422c4f"/>
            <path id="Trazado_721710" data-name="Trazado 721710" d="M95.911,245.171v7.834a3.537,3.537,0,0,1-3.537,3.537h11.242a3.537,3.537,0,0,0,3.537-3.537v-10.36H98.437a2.526,2.526,0,0,0-2.526,2.526" transform="translate(-45.702 -120.048)" fill="#f6dcc5"/>
            <path id="Trazado_721711" data-name="Trazado 721711" d="M88.334,186.21a20.21,20.21,0,0,0-20.21,20.21v18.665a3.537,3.537,0,0,0,3.537,3.537h8.716a3.537,3.537,0,0,0,3.537-3.537v-7.834a2.526,2.526,0,0,1,2.526-2.526h38.336V191.858l3.642-5.648Z" transform="translate(-33.704 -92.127)" fill="#fff"/>
            <path id="Trazado_721712" data-name="Trazado 721712" d="M86.509,274.4H99.114a1.354,1.354,0,0,0,1.355-1.355V270.15H86.509Z" transform="translate(-42.8 -133.656)" fill="#dda790"/>
            <path id="Trazado_721713" data-name="Trazado 721713" d="M77.765,274.4H84.3a1.354,1.354,0,0,0,1.355-1.355V270.15H76.41v2.892a1.354,1.354,0,0,0,1.355,1.355" transform="translate(-37.804 -133.656)" fill="#f6dcc5"/>
            <path id="Trazado_721714" data-name="Trazado 721714" d="M95.506,205.327a4.016,4.016,0,0,1,2.208-3.585v-.435h1.812a4.02,4.02,0,0,1,0,8.041H97.714v-.435a4.016,4.016,0,0,1-2.208-3.585" transform="translate(-47.251 -99.596)" fill="#99a3b0"/>
            <path id="Trazado_721715" data-name="Trazado 721715" d="M91.92,205.327a4.02,4.02,0,1,0,4.02-4.02,4.02,4.02,0,0,0-4.02,4.02" transform="translate(-45.477 -99.596)" fill="#c7d2d7"/>
            <path id="Trazado_721716" data-name="Trazado 721716" d="M121.627,205.327a4.016,4.016,0,0,1,2.208-3.585v-.435h1.812a4.02,4.02,0,1,1,0,8.041h-1.812v-.435a4.016,4.016,0,0,1-2.208-3.585" transform="translate(-60.175 -99.596)" fill="#99a3b0"/>
            <path id="Trazado_721717" data-name="Trazado 721717" d="M118.041,205.327a4.02,4.02,0,1,0,4.02-4.02,4.02,4.02,0,0,0-4.02,4.02" transform="translate(-58.401 -99.596)" fill="#c7d2d7"/>
            <path id="Trazado_721718" data-name="Trazado 721718" d="M93.784,285.629h-5.7a1.011,1.011,0,0,1-1.01-1.01v-6.063h7.721v6.063a1.011,1.011,0,0,1-1.011,1.01" transform="translate(-43.08 -137.814)" fill="#c7d2d7"/>
            <rect id="Rectángulo_36239" data-name="Rectángulo 36239" width="1.73" height="7.074" transform="translate(46.125 140.741)" fill="#fff"/>
            <path id="Trazado_721719" data-name="Trazado 721719" d="M94.774,297.018l-2.4,2.147v-6.61h2.4Z" transform="translate(-45.702 -144.741)" fill="#99a3b0"/>
            <path id="Trazado_721720" data-name="Trazado 721720" d="M186.015,191.8V186.21h-9.937a11.621,11.621,0,0,0-11.621,11.621v50.356H187.7V197.831a11.567,11.567,0,0,0-1.684-6.029" transform="translate(-81.365 -92.127)" fill="#fff"/>
            <path id="Trazado_721721" data-name="Trazado 721721" d="M207.366,248.187H184.124V197.831a11.621,11.621,0,0,1,23.242,0Z" transform="translate(-91.095 -92.127)" fill="#f6dcc5"/>
            <path id="Trazado_721722" data-name="Trazado 721722" d="M118.522,308.875H53.177a5.052,5.052,0,0,0-5.053,5.053v10.786h70.4Z" transform="translate(-23.809 -152.815)" fill="#fff"/>
            <path id="Trazado_721723" data-name="Trazado 721723" d="M215.855,308.875H174.677a5.052,5.052,0,0,0-5.053,5.053v10.786h51.283V313.928a5.052,5.052,0,0,0-5.053-5.053" transform="translate(-83.921 -152.815)" fill="#f6dcc5"/>
            <path id="Trazado_721724" data-name="Trazado 721724" d="M212.56,208.439a8.962,8.962,0,0,0-4.926-8v-.97h-4.042a8.968,8.968,0,0,0,0,17.936h4.042v-.97a8.961,8.961,0,0,0,4.926-8" transform="translate(-96.29 -98.688)" fill="#c7d2d7"/>
            <path id="Trazado_721725" data-name="Trazado 721725" d="M220.56,208.439a8.968,8.968,0,1,1-8.968-8.968,8.968,8.968,0,0,1,8.968,8.968" transform="translate(-100.248 -98.688)" fill="#99a3b0"/>
            <path id="Trazado_721726" data-name="Trazado 721726" d="M182.971,170.137h-7.326a2.021,2.021,0,0,1-2.021-2.021V155.743a2.021,2.021,0,0,1,2.021-2.021h7.326a2.021,2.021,0,0,1,2.021,2.021v12.373a2.021,2.021,0,0,1-2.021,2.021" transform="translate(-85.9 -76.054)" fill="#e47790"/>
            <rect id="Rectángulo_36240" data-name="Rectángulo 36240" width="3.874" height="2.442" transform="translate(91.471 75.226)" fill="#c7d2d7"/>
            <path id="Trazado_721727" data-name="Trazado 721727" d="M184.5,161.017a.5.5,0,0,1-.14-.02l-11.368-3.284a.505.505,0,1,1,.28-.971l11.368,3.284a.505.505,0,0,1-.14.991" transform="translate(-85.405 -77.538)" fill="#9062a0"/>
            <path id="Trazado_721728" data-name="Trazado 721728" d="M184.5,174.016a.5.5,0,0,1-.14-.02l-11.368-3.284a.505.505,0,1,1,.28-.971l11.368,3.284a.505.505,0,0,1-.14.991" transform="translate(-85.405 -83.969)" fill="#9062a0"/>
            <path id="Trazado_721729" data-name="Trazado 721729" d="M151.3,170.137h-7.326a2.021,2.021,0,0,1-2.021-2.021V155.743a2.021,2.021,0,0,1,2.021-2.021H151.3a2.021,2.021,0,0,1,2.021,2.021v12.373a2.021,2.021,0,0,1-2.021,2.021" transform="translate(-70.233 -76.054)" fill="#9062a0"/>
            <rect id="Rectángulo_36241" data-name="Rectángulo 36241" width="3.874" height="2.442" transform="translate(75.472 75.226)" fill="#c7d2d7"/>
            <path id="Trazado_721730" data-name="Trazado 721730" d="M152.831,161.017a.5.5,0,0,1-.14-.02l-11.368-3.284a.505.505,0,0,1,.28-.971l11.368,3.284a.505.505,0,0,1-.14.991" transform="translate(-69.738 -77.538)" fill="#e47790"/>
            <path id="Trazado_721731" data-name="Trazado 721731" d="M152.831,174.016a.5.5,0,0,1-.14-.02l-11.368-3.284a.505.505,0,0,1,.28-.971l11.368,3.284a.505.505,0,0,1-.14.991" transform="translate(-69.738 -83.969)" fill="#e47790"/>
            <path id="Trazado_721732" data-name="Trazado 721732" d="M141.463,167.517a.505.505,0,0,1-.14-.991l11.368-3.284a.505.505,0,1,1,.28.971L141.6,167.5a.5.5,0,0,1-.14.02" transform="translate(-69.738 -80.754)" fill="#e47790"/>
            <path id="Trazado_721733" data-name="Trazado 721733" d="M141.463,180.516a.505.505,0,0,1-.14-.991l11.368-3.284a.505.505,0,1,1,.28.971L141.6,180.5a.5.5,0,0,1-.14.02" transform="translate(-69.738 -87.185)" fill="#e47790"/>
            <path id="Trazado_721734" data-name="Trazado 721734" d="M173.129,167.517a.505.505,0,0,1-.14-.991l11.368-3.284a.505.505,0,1,1,.28.971L173.269,167.5a.5.5,0,0,1-.14.02" transform="translate(-85.405 -80.754)" fill="#9062a0"/>
            <path id="Trazado_721735" data-name="Trazado 721735" d="M173.129,180.516a.505.505,0,0,1-.14-.991l11.368-3.284a.505.505,0,1,1,.28.971L173.269,180.5a.5.5,0,0,1-.14.02" transform="translate(-85.405 -87.185)" fill="#9062a0"/>
            <rect id="Rectángulo_36242" data-name="Rectángulo 36242" width="9.937" height="4.94" transform="translate(83.092 151.119)" fill="#f6dcc5"/>
            <rect id="Rectángulo_36243" data-name="Rectángulo 36243" width="23.242" height="4.94" transform="translate(93.029 151.119)" fill="#dda790"/>
            <rect id="Rectángulo_36244" data-name="Rectángulo 36244" width="92.851" height="8.084" transform="translate(222.489 171.897)" fill="#a64f5a"/>
            <rect id="Rectángulo_36245" data-name="Rectángulo 36245" width="206.258" height="8.084" transform="translate(16.231 171.897)" fill="#bd6c67"/>
            <rect id="Rectángulo_36246" data-name="Rectángulo 36246" width="86.264" height="18.189" transform="translate(218.466 179.981)" fill="#a64f5a"/>
            <rect id="Rectángulo_36247" data-name="Rectángulo 36247" width="191.625" height="18.189" transform="translate(26.841 179.981)" fill="#bd6c67"/>
            <rect id="Rectángulo_36248" data-name="Rectángulo 36248" width="86.264" height="7.074" transform="translate(218.466 179.981)" fill="#8c404c"/>
            <rect id="Rectángulo_36249" data-name="Rectángulo 36249" width="191.625" height="7.074" transform="translate(26.841 179.981)" fill="#a64f5a"/>
            <path id="Trazado_721736" data-name="Trazado 721736" d="M257.995,332.569l-5.016.053a1.261,1.261,0,0,0-1.23,1.042c-1.562,8.99-2.281,18.155-1.11,27.2-5.589-.54-11.935,1.98-15.2,6.547-1.775,2.481-2.807,5.407-4.3,8.069s-3.653,5.2-6.606,5.966c-3.1.806-6.4-.527-8.931-2.48s-4.547-4.5-6.916-6.65-5.311-3.967-8.511-3.931c-2.941.033-6.229,1.542-8.6-.2-1.4-1.031-1.907-2.862-2.863-4.317a7.845,7.845,0,0,0-8.462-3.148c3.608-4.494,5.066-10.779,4.922-16.54-.052-2.073-.357-4.208.3-6.176,1.052-3.17,4.276-5.045,7.364-6.319s6.453-2.341,8.648-4.858c3.165-3.63,9.722-1.336,14.327.071s9.178,3.331,13.994,3.316a39.011,39.011,0,0,0,9.511-1.7,28.091,28.091,0,0,1,9.559-1.234c3.215.3,7.476,2.509,9.123,5.287" transform="translate(-89.178 -160.735)" fill="#e47790"/>
            <path id="Trazado_721737" data-name="Trazado 721737" d="M252.459,384.817a12.232,12.232,0,0,1-11.841-9.041c-1.312-4.82.387-9.828,2.238-14.545l.077-.2c1.79-4.559,3.641-9.273,2.818-14a.252.252,0,0,1,.206-.292.248.248,0,0,1,.292.205c.848,4.869-1.03,9.65-2.845,14.274l-.077.2c-1.82,4.638-3.491,9.557-2.221,14.228a11.771,11.771,0,0,0,16.588,7.454.253.253,0,0,1,.225.453,12.317,12.317,0,0,1-5.46,1.266" transform="translate(-118.816 -171.547)" fill="#9062a0"/>
            <path id="Trazado_721738" data-name="Trazado 721738" d="M266.964,375.518a.249.249,0,0,1-.143-.044.253.253,0,0,1-.066-.351c2.369-3.455,2.452-7.852,2.533-12.1.034-1.8.069-3.662.274-5.443a26.774,26.774,0,0,1,10.366-18.045.253.253,0,0,1,.3.4,26.261,26.261,0,0,0-10.168,17.7c-.2,1.756-.237,3.6-.271,5.394-.082,4.327-.167,8.8-2.621,12.381a.253.253,0,0,1-.209.11" transform="translate(-131.955 -167.957)" fill="#9062a0"/>
            <path id="Trazado_721739" data-name="Trazado 721739" d="M296.724,368.946a.269.269,0,0,1-.074-.011.253.253,0,0,1-.168-.315,182.345,182.345,0,0,0,6.1-27.405.257.257,0,0,1,.286-.215.254.254,0,0,1,.215.286,182.971,182.971,0,0,1-6.118,27.481.253.253,0,0,1-.242.179" transform="translate(-146.678 -168.708)" fill="#9062a0"/>
            <path id="Trazado_721740" data-name="Trazado 721740" d="M207.485,367.737a.262.262,0,0,1-.073-.011.253.253,0,0,1-.169-.315l3.549-11.732a59.73,59.73,0,0,1,4.655-12.126c1.682-2.994,4.658-6.978,9.276-8.952a.253.253,0,0,1,.2.465c-4.488,1.918-7.39,5.809-9.034,8.735a59.333,59.333,0,0,0-4.612,12.024l-3.549,11.733a.254.254,0,0,1-.242.179" transform="translate(-102.528 -165.533)" fill="#9062a0"/>
            <path id="Trazado_721741" data-name="Trazado 721741" d="M279.744,412.182a.253.253,0,0,1-.175-.435,3.94,3.94,0,0,0,1.128-2.073.253.253,0,0,1,.5.1,4.447,4.447,0,0,1-1.274,2.341.252.252,0,0,1-.175.071" transform="translate(-138.278 -202.585)" fill="#9062a0"/>
            <path id="Trazado_721742" data-name="Trazado 721742" d="M267.425,377.441a.252.252,0,0,1-.247-.2,20.024,20.024,0,0,1,.222-9.4.253.253,0,1,1,.488.13,19.52,19.52,0,0,0-.217,9.16.252.252,0,0,1-.193.3.249.249,0,0,1-.054.006" transform="translate(-131.962 -181.898)" fill="#9062a0"/>
            <path id="Trazado_721743" data-name="Trazado 721743" d="M216.035,382.024a.249.249,0,0,1-.076-.012.252.252,0,0,1-.165-.316l1.292-4.117a.25.25,0,0,1,.317-.166.253.253,0,0,1,.165.317l-1.292,4.117a.253.253,0,0,1-.241.177" transform="translate(-106.758 -186.718)" fill="#9062a0"/>
            <path id="Trazado_721744" data-name="Trazado 721744" d="M220.48,369.482a.241.241,0,0,1-.063-.008.252.252,0,0,1-.182-.307l.363-1.424a.251.251,0,0,1,.307-.182.254.254,0,0,1,.182.308l-.363,1.424a.253.253,0,0,1-.245.19" transform="translate(-108.957 -181.845)" fill="#9062a0"/>
            <rect id="Rectángulo_36250" data-name="Rectángulo 36250" width="137.953" height="132.617" transform="translate(167.43 1.657)" fill="#bba389"/>
            <rect id="Rectángulo_36251" data-name="Rectángulo 36251" width="124.817" height="119.481" transform="translate(173.998 8.225)" fill="#454f6b"/>
            <rect id="Rectángulo_36252" data-name="Rectángulo 36252" width="2.631" height="132.617" transform="translate(305.383 1.657)" fill="#a08b7c"/>
            <rect id="Rectángulo_36253" data-name="Rectángulo 36253" width="2.637" height="119.481" transform="translate(173.998 8.225)" fill="#a08b7c"/>
            <rect id="Rectángulo_36254" data-name="Rectángulo 36254" width="36.978" height="48.46" transform="translate(182.636 67.128) rotate(-7.45)" fill="#fff"/>
            <rect id="Rectángulo_36255" data-name="Rectángulo 36255" width="10.891" height="1.235" transform="translate(186.365 70.639) rotate(-7.45)" fill="#e4e4e0"/>
            <rect id="Rectángulo_36256" data-name="Rectángulo 36256" width="30.456" height="0.878" transform="matrix(0.992, -0.13, 0.13, 0.992, 186.646, 72.791)" fill="#e4e4e0"/>
            <rect id="Rectángulo_36257" data-name="Rectángulo 36257" width="30.456" height="0.878" transform="matrix(0.992, -0.13, 0.13, 0.992, 186.882, 74.59)" fill="#e4e4e0"/>
            <rect id="Rectángulo_36258" data-name="Rectángulo 36258" width="13.903" height="0.878" transform="translate(187.117 76.388) rotate(-7.45)" fill="#e4e4e0"/>
            <rect id="Rectángulo_36259" data-name="Rectángulo 36259" width="30.456" height="0.878" transform="matrix(0.992, -0.13, 0.13, 0.992, 187.587, 79.986)" fill="#e4e4e0"/>
            <rect id="Rectángulo_36260" data-name="Rectángulo 36260" width="30.456" height="0.878" transform="matrix(0.992, -0.13, 0.13, 0.992, 187.823, 81.784)" fill="#e4e4e0"/>
            <rect id="Rectángulo_36261" data-name="Rectángulo 36261" width="30.456" height="0.878" transform="matrix(0.992, -0.13, 0.13, 0.992, 188.058, 83.583)" fill="#e4e4e0"/>
            <rect id="Rectángulo_36262" data-name="Rectángulo 36262" width="21.796" height="0.878" transform="translate(188.293 85.381) rotate(-7.45)" fill="#e4e4e0"/>
            <rect id="Rectángulo_36263" data-name="Rectángulo 36263" width="30.456" height="0.879" transform="matrix(0.992, -0.13, 0.13, 0.992, 188.763, 88.979)" fill="#e4e4e0"/>
            <rect id="Rectángulo_36264" data-name="Rectángulo 36264" width="8.254" height="0.878" transform="translate(188.999 90.777) rotate(-7.449)" fill="#e4e4e0"/>
            <rect id="Rectángulo_36265" data-name="Rectángulo 36265" width="30.456" height="0.878" transform="matrix(0.992, -0.13, 0.13, 0.992, 189.469, 94.375)" fill="#e4e4e0"/>
            <rect id="Rectángulo_36266" data-name="Rectángulo 36266" width="30.456" height="0.878" transform="matrix(0.992, -0.13, 0.13, 0.992, 189.704, 96.174)" fill="#e4e4e0"/>
            <rect id="Rectángulo_36267" data-name="Rectángulo 36267" width="16.185" height="0.878" transform="matrix(0.992, -0.13, 0.13, 0.992, 189.939, 97.972)" fill="#e4e4e0"/>
            <rect id="Rectángulo_36268" data-name="Rectángulo 36268" width="30.456" height="0.879" transform="matrix(0.992, -0.13, 0.13, 0.992, 190.41, 101.57)" fill="#e4e4e0"/>
            <rect id="Rectángulo_36269" data-name="Rectángulo 36269" width="22.769" height="0.878" transform="matrix(0.992, -0.13, 0.13, 0.992, 190.645, 103.368)" fill="#e4e4e0"/>
            <rect id="Rectángulo_36270" data-name="Rectángulo 36270" width="30.456" height="0.878" transform="matrix(0.992, -0.13, 0.13, 0.992, 191.115, 106.966)" fill="#e4e4e0"/>
            <rect id="Rectángulo_36271" data-name="Rectángulo 36271" width="30.456" height="0.879" transform="matrix(0.992, -0.13, 0.13, 0.992, 191.35, 108.764)" fill="#e4e4e0"/>
            <rect id="Rectángulo_36272" data-name="Rectángulo 36272" width="9.825" height="0.878" transform="translate(191.586 110.563) rotate(-7.449)" fill="#e4e4e0"/>
            <rect id="Rectángulo_36273" data-name="Rectángulo 36273" width="48.46" height="36.978" transform="matrix(0.141, -0.99, 0.99, 0.141, 242.121, 59.634)" fill="#fbeed1"/>
            <path id="Trazado_721745" data-name="Trazado 721745" d="M512.486,45.672l-.253,1.375h-1.789a3.592,3.592,0,0,0-2.58,1.093l-2.941,3.038a1.8,1.8,0,0,0-.114,2.368l2.533,3.18.561-.636-2.02-3.554,2.731-2.282.105.3a6.914,6.914,0,0,1,.327,3.136l-.171,1.349-1.726,1.82a7.23,7.23,0,0,0-1.952,4.289l-.96,10.051-.079.142a16.32,16.32,0,0,0-1.823,5.111l-.893,5.033,1.456.207,3.434-10.119,3.432-10.3a.929.929,0,0,1,1.811.287l.069,9.71,1.627,11.3h1.594l.171-4.11a16.325,16.325,0,0,0-.821-5.831l-.477-1.431,2.154-8.064a7.233,7.233,0,0,0-.7-5.433l-1.383-2.438.118-.87A6.915,6.915,0,0,1,515.385,51l2.394,4.863,1.8,5.462.823-.524-1.047-5.686L517.925,50.4a3.593,3.593,0,0,0-2.207-2.335l-2.109-.768.112-1.627Z" transform="translate(-248.088 -22.596)" fill="#cc6164"/>
            <path id="Trazado_721746" data-name="Trazado 721746" d="M524.894,40.877a1.989,1.989,0,1,1-1.88-2.37,2.153,2.153,0,0,1,1.88,2.37" transform="translate(-257.747 -19.051)" fill="#cc6164"/>
            <rect id="Rectángulo_36274" data-name="Rectángulo 36274" width="48.46" height="36.978" transform="translate(215.253 123.629) rotate(-78.209)" fill="#d4cfbe"/>
            <rect id="Rectángulo_36275" data-name="Rectángulo 36275" width="48.46" height="36.978" transform="matrix(0.169, -0.986, 0.986, 0.169, 188.4, 63.623)" fill="#fff"/>
            <path id="Trazado_721747" data-name="Trazado 721747" d="M403.4,54.7l8.721,1.327a9.875,9.875,0,0,1,6.772,4.346l1.911,2.913-3.746,2.285-2.349-1.791L411.844,80.1l-15.7-2.138L399.627,61.1l-3.295,1.061-3.2-3.562,3.041-2.172A9.874,9.874,0,0,1,403.4,54.7" transform="translate(-194.502 -27.006)" fill="#6ca8bf"/>
            <path id="Trazado_721748" data-name="Trazado 721748" d="M416.241,55.24l5.71.869-.021.132a2.888,2.888,0,1,1-5.705-.9Z" transform="translate(-205.908 -27.33)" fill="#468097"/>
            <path id="Trazado_721749" data-name="Trazado 721749" d="M423.805,48.459l-1.72-1.432-.152.882-14-2.414.152-.882-2.1.774,1.719,1.432.152-.882,14,2.414-.152.882Z" transform="translate(-200.862 -22.072)" fill="#454f6b"/>
            <path id="Trazado_721750" data-name="Trazado 721750" d="M391.873,77.188l.882.151-.776-2.1-1.43,1.721.882.151-2.4,14-.882-.151.776,2.1,1.43-1.721-.882-.151Z" transform="translate(-192.035 -37.225)" fill="#454f6b"/>
            <path id="Trazado_721751" data-name="Trazado 721751" d="M396.282,110.439a.835.835,0,0,1-.507-.51.449.449,0,0,1,.837-.325.2.2,0,0,0,.1.006,1.356,1.356,0,0,0,.344-.156c.066-.037.133-.074.2-.107a1.186,1.186,0,0,1,1.1-.062,1.371,1.371,0,0,1,.512.526.868.868,0,0,0,.158.206c.047.018.275-.127.361-.181a1.266,1.266,0,0,1,1.162-.262h0a1.291,1.291,0,0,1,.621.622,1.013,1.013,0,0,0,.159.229,1.4,1.4,0,0,0,.246-.134,2.124,2.124,0,0,1,.423-.218,1.952,1.952,0,0,1,1.408.188,10.6,10.6,0,0,0,4.062.8.449.449,0,0,1,0,.9,11.437,11.437,0,0,1-4.384-.854,1.348,1.348,0,0,0-.8-.18,1.443,1.443,0,0,0-.243.132,1.175,1.175,0,0,1-.961.235,1.2,1.2,0,0,1-.691-.639.945.945,0,0,0-.169-.238,1.134,1.134,0,0,0-.358.181,1.272,1.272,0,0,1-1.158.265,1.247,1.247,0,0,1-.6-.559.809.809,0,0,0-.168-.215.462.462,0,0,0-.288.068c-.055.027-.109.057-.162.087a2.087,2.087,0,0,1-.6.251,1.112,1.112,0,0,1-.613-.05" transform="translate(-195.797 -54.015)" fill="#fff"/>
            <path id="Trazado_721752" data-name="Trazado 721752" d="M396.282,110.439a.835.835,0,0,1-.507-.51.449.449,0,0,1,.837-.325.2.2,0,0,0,.1.006,1.356,1.356,0,0,0,.344-.156c.066-.037.133-.074.2-.107a1.186,1.186,0,0,1,1.1-.062,1.371,1.371,0,0,1,.512.526.868.868,0,0,0,.158.206c.047.018.275-.127.361-.181a1.266,1.266,0,0,1,1.162-.262h0a1.291,1.291,0,0,1,.621.622,1.013,1.013,0,0,0,.159.229,1.4,1.4,0,0,0,.246-.134,2.124,2.124,0,0,1,.423-.218,1.952,1.952,0,0,1,1.408.188,10.6,10.6,0,0,0,4.062.8.449.449,0,0,1,0,.9,11.437,11.437,0,0,1-4.384-.854,1.348,1.348,0,0,0-.8-.18,1.443,1.443,0,0,0-.243.132,1.175,1.175,0,0,1-.961.235,1.2,1.2,0,0,1-.691-.639.945.945,0,0,0-.169-.238,1.134,1.134,0,0,0-.358.181,1.272,1.272,0,0,1-1.158.265,1.247,1.247,0,0,1-.6-.559.809.809,0,0,0-.168-.215.462.462,0,0,0-.288.068c-.055.027-.109.057-.162.087a2.087,2.087,0,0,1-.6.251A1.112,1.112,0,0,1,396.282,110.439Z" transform="translate(-195.797 -54.015)" fill="none" stroke="#222221" stroke-miterlimit="10" stroke-width="0.888"/>
            <path id="Trazado_721753" data-name="Trazado 721753" d="M384.628,117.026a1.884,1.884,0,0,1-.813-.6,1.357,1.357,0,0,1-.28-1.059.449.449,0,0,1,.885.152.458.458,0,0,0,.108.361,1.014,1.014,0,0,0,.669.364,3.35,3.35,0,0,0,1.49-.363l.156-.062a3.186,3.186,0,0,1,2.181-.245,3.324,3.324,0,0,1,1.066.672,2.942,2.942,0,0,0,.724.494l.017.007a2.953,2.953,0,0,0,1.681-.093,7.68,7.68,0,0,1,1.059-.2,7.134,7.134,0,0,1,2.14.23l2.845.609a.449.449,0,0,1-.188.878l-2.845-.609a6.358,6.358,0,0,0-1.87-.214,6.914,6.914,0,0,0-.935.177,3.635,3.635,0,0,1-2.208.058l-.032-.013a3.657,3.657,0,0,1-.961-.636,2.626,2.626,0,0,0-.778-.512,2.39,2.39,0,0,0-1.564.228l-.152.061a4.115,4.115,0,0,1-1.909.423,1.85,1.85,0,0,1-.485-.116" transform="translate(-189.744 -56.895)" fill="#fff"/>
            <path id="Trazado_721754" data-name="Trazado 721754" d="M384.628,117.026a1.884,1.884,0,0,1-.813-.6,1.357,1.357,0,0,1-.28-1.059.449.449,0,0,1,.885.152.458.458,0,0,0,.108.361,1.014,1.014,0,0,0,.669.364,3.35,3.35,0,0,0,1.49-.363l.156-.062a3.186,3.186,0,0,1,2.181-.245,3.324,3.324,0,0,1,1.066.672,2.942,2.942,0,0,0,.724.494l.017.007a2.953,2.953,0,0,0,1.681-.093,7.68,7.68,0,0,1,1.059-.2,7.134,7.134,0,0,1,2.14.23l2.845.609a.449.449,0,0,1-.188.878l-2.845-.609a6.358,6.358,0,0,0-1.87-.214,6.914,6.914,0,0,0-.935.177,3.635,3.635,0,0,1-2.208.058l-.032-.013a3.657,3.657,0,0,1-.961-.636,2.626,2.626,0,0,0-.778-.512,2.39,2.39,0,0,0-1.564.228l-.152.061a4.115,4.115,0,0,1-1.909.423A1.85,1.85,0,0,1,384.628,117.026Z" transform="translate(-189.744 -56.895)" fill="none" stroke="#222221" stroke-miterlimit="10" stroke-width="0.888"/>
            <rect id="Rectángulo_36276" data-name="Rectángulo 36276" width="36.978" height="48.46" transform="translate(252.972 62.1) rotate(-7.371)" fill="#fff"/>
            <path id="Trazado_721755" data-name="Trazado 721755" d="M523.245,128.014l2.478-.4.443,1.991a4.529,4.529,0,0,0,8.946-1.189L535,125.966h2.394l.389,5.447a3.179,3.179,0,0,0,.526,1.536l.8,1.208a3.57,3.57,0,0,1-.367,4.423,4.692,4.692,0,0,0-1.236,3.779l.112.918a6.052,6.052,0,0,0,1.4,3.195l.188.221a12.27,12.27,0,0,1,2.883,9.056l-.811,9.047-12.045,1.347-3.081-7.509a12.271,12.271,0,0,1,.307-10,6.052,6.052,0,0,0,.571-3.28l-.152-1.423a6.056,6.056,0,0,0-2.183-4.041,3.569,3.569,0,0,1-.937-4.344l.263-.532a3.178,3.178,0,0,0,.261-2.067Z" transform="translate(-258.874 -62.321)" fill="#e47790"/>
            <path id="Trazado_721756" data-name="Trazado 721756" d="M539.546,143.649l-1.357-.506.1.571-9.063,1.526-.1-.571-1.117.922,1.357.506-.1-.571L538.333,144l.1.571Z" transform="translate(-261.232 -70.82)" fill="#454f6b"/>
            <path id="Trazado_721757" data-name="Trazado 721757" d="M561.983,130.2l.886-.126-1.381-1.761-.835,2.077.886-.126,4.4,31.267-.886.126,1.381,1.761.835-2.077-.886.126Z" transform="translate(-277.382 -63.484)" fill="#454f6b"/>
            <rect id="Rectángulo_36277" data-name="Rectángulo 36277" width="48.46" height="36.978" transform="translate(218.208 89.323) rotate(-81.919)" fill="#e4e4e0"/>
            <rect id="Rectángulo_36278" data-name="Rectángulo 36278" width="1.234" height="10.891" transform="translate(227.5 46.948) rotate(-81.92)" fill="#d4cfbe"/>
            <rect id="Rectángulo_36279" data-name="Rectángulo 36279" width="0.878" height="30.455" transform="translate(227.245 48.744) rotate(-81.919)" fill="#d4cfbe"/>
            <rect id="Rectángulo_36280" data-name="Rectángulo 36280" width="0.879" height="30.456" transform="translate(226.99 50.54) rotate(-81.919)" fill="#d4cfbe"/>
            <rect id="Rectángulo_36281" data-name="Rectángulo 36281" width="0.878" height="13.903" transform="matrix(0.141, -0.99, 0.99, 0.141, 226.735, 52.336)" fill="#d4cfbe"/>
            <rect id="Rectángulo_36282" data-name="Rectángulo 36282" width="0.878" height="30.455" transform="translate(226.225 55.928) rotate(-81.919)" fill="#d4cfbe"/>
            <rect id="Rectángulo_36283" data-name="Rectángulo 36283" width="0.878" height="30.455" transform="translate(225.97 57.724) rotate(-81.919)" fill="#d4cfbe"/>
            <rect id="Rectángulo_36284" data-name="Rectángulo 36284" width="0.879" height="30.456" transform="translate(225.715 59.52) rotate(-81.919)" fill="#d4cfbe"/>
            <rect id="Rectángulo_36285" data-name="Rectángulo 36285" width="0.878" height="21.796" transform="translate(225.46 61.316) rotate(-81.919)" fill="#d4cfbe"/>
            <rect id="Rectángulo_36286" data-name="Rectángulo 36286" width="0.878" height="30.455" transform="translate(224.95 64.908) rotate(-81.919)" fill="#d4cfbe"/>
            <rect id="Rectángulo_36287" data-name="Rectángulo 36287" width="0.878" height="8.254" transform="matrix(0.141, -0.99, 0.99, 0.141, 224.695, 66.704)" fill="#d4cfbe"/>
            <rect id="Rectángulo_36288" data-name="Rectángulo 36288" width="0.878" height="30.455" transform="translate(224.185 70.296) rotate(-81.919)" fill="#d4cfbe"/>
            <rect id="Rectángulo_36289" data-name="Rectángulo 36289" width="0.878" height="30.455" transform="translate(223.93 72.092) rotate(-81.919)" fill="#d4cfbe"/>
            <rect id="Rectángulo_36290" data-name="Rectángulo 36290" width="0.878" height="16.185" transform="translate(223.675 73.887) rotate(-81.919)" fill="#d4cfbe"/>
            <rect id="Rectángulo_36291" data-name="Rectángulo 36291" width="0.879" height="30.456" transform="translate(223.165 77.479) rotate(-81.919)" fill="#d4cfbe"/>
            <rect id="Rectángulo_36292" data-name="Rectángulo 36292" width="0.878" height="22.768" transform="translate(222.91 79.275) rotate(-81.919)" fill="#d4cfbe"/>
            <rect id="Rectángulo_36293" data-name="Rectángulo 36293" width="0.878" height="30.455" transform="translate(222.4 82.867) rotate(-81.919)" fill="#d4cfbe"/>
            <rect id="Rectángulo_36294" data-name="Rectángulo 36294" width="0.878" height="30.455" transform="translate(222.145 84.663) rotate(-81.919)" fill="#d4cfbe"/>
            <rect id="Rectángulo_36295" data-name="Rectángulo 36295" width="0.878" height="9.825" transform="translate(221.89 86.459) rotate(-81.918)" fill="#d4cfbe"/>
            <path id="Trazado_721758" data-name="Trazado 721758" d="M381.881,217.221h0a7.6,7.6,0,0,0-4.7,5.208L366.1,265.107a11.424,11.424,0,0,0,6.438,13.321l1.979.875h20.72l-14.273-10.547,4.926-18.568Z" transform="translate(-180.942 -107.47)" fill="#f0bf9c"/>
            <path id="Trazado_721759" data-name="Trazado 721759" d="M380.956,254.7l11.108,4.481.818,6.733-12.321-9.695Z" transform="translate(-188.282 -126.012)" fill="#422c4f"/>
            <path id="Trazado_721760" data-name="Trazado 721760" d="M387.154,315.74l-8.905-2.147a6.928,6.928,0,0,1,9.251.842Z" transform="translate(-187.138 -154.453)" fill="#e78882"/>
            <path id="Trazado_721761" data-name="Trazado 721761" d="M383.809,217.221l-1.467.547a7.6,7.6,0,0,0-3.6,2.8l-9.123,13.2,17.029,6.87Z" transform="translate(-182.871 -107.47)" fill="#6c6fc3"/>
            <path id="Trazado_721762" data-name="Trazado 721762" d="M394.417,248.273v-13.3l-3.353,11.949Z" transform="translate(-193.478 -116.252)" fill="#56438c"/>
            <path id="Trazado_721763" data-name="Trazado 721763" d="M420.441,194.976a16.441,16.441,0,0,0,12.505,2.449,17.11,17.11,0,0,0,11.005-8.034,18.149,18.149,0,0,0,2.41-8.053l-11.307-1.17-3.875-19.2-10.536,12.755,1.4,9.605-8,2.982a16.471,16.471,0,0,0,6.391,8.668" transform="translate(-204.85 -79.638)" fill="#f0bf9c"/>
            <path id="Trazado_721764" data-name="Trazado 721764" d="M428,180.645c7.283-1.341,10.1-12.138,8.984-18.108L427.1,174.5Z" transform="translate(-211.308 -80.415)" fill="#e78882"/>
            <path id="Trazado_721765" data-name="Trazado 721765" d="M428.875,220.687a.188.188,0,0,1-.16-.088l-.067-.106a4.582,4.582,0,0,0-3.891-2.143h-5.444a.189.189,0,0,1,0-.379h5.444a4.96,4.96,0,0,1,4.212,2.32l.066.106a.189.189,0,0,1-.059.261.186.186,0,0,1-.1.029" transform="translate(-207.361 -107.841)" fill="#e78882"/>
            <path id="Trazado_721766" data-name="Trazado 721766" d="M448.65,215.6l-.028,0a.19.19,0,0,1-.159-.216,5.014,5.014,0,0,1,2.981-3.846l6.013-2.552a.189.189,0,0,1,.148.349l-6.013,2.552a4.632,4.632,0,0,0-2.754,3.554.19.19,0,0,1-.187.161" transform="translate(-221.875 -103.388)" fill="#e78882"/>
            <path id="Trazado_721767" data-name="Trazado 721767" d="M448.945,202.39l-10.672-1.1a18.153,18.153,0,0,1-2.41,8.053,17.111,17.111,0,0,1-11.005,8.034,16.221,16.221,0,0,1-18.9-11.117l-8.261,3.081v35.617a14.346,14.346,0,0,0,6.265,11.853,14.344,14.344,0,0,1,6,9.108l1.085,5.568h56.083Z" transform="translate(-196.761 -99.586)" fill="#6c6fc3"/>
            <path id="Trazado_721768" data-name="Trazado 721768" d="M502.457,241.555l2.254,11.9a69.22,69.22,0,0,0,6.732,19.314l5.238,9.972-10.843-41.189Z" transform="translate(-248.589 -119.509)" fill="#56438c"/>
            <path id="Trazado_721769" data-name="Trazado 721769" d="M427.888,232.721a18.547,18.547,0,0,1-4.282-.5,19.252,19.252,0,0,1-12.205-9.265.253.253,0,1,1,.442-.245,18.445,18.445,0,0,0,26.545,6.3.253.253,0,1,1,.285.417,19.262,19.262,0,0,1-10.786,3.286" transform="translate(-203.524 -110.124)" fill="#56438c"/>
            <path id="Trazado_721770" data-name="Trazado 721770" d="M472.756,220.1a.253.253,0,0,1-.18-.429,15.26,15.26,0,0,0,3.961-7.286.252.252,0,1,1,.492.112,15.754,15.754,0,0,1-4.092,7.528.252.252,0,0,1-.18.076" transform="translate(-233.77 -104.979)" fill="#56438c"/>
            <path id="Trazado_721771" data-name="Trazado 721771" d="M430.835,244.26a22.579,22.579,0,0,1-11.434-3.079.253.253,0,1,1,.258-.435,22.12,22.12,0,0,0,17.315,2.125.253.253,0,0,1,.145.485,21.993,21.993,0,0,1-6.284.9" transform="translate(-207.436 -119.092)" fill="#56438c"/>
            <path id="Trazado_721772" data-name="Trazado 721772" d="M416.836,303.344c-.082,0-.164,0-.247,0a.253.253,0,1,1,.015-.505c2.633.081,4.921-1.151,7.361-2.455a24.529,24.529,0,0,1,5.076-2.238c3.548-.949,7.251-.2,10.833.526.42.085.84.17,1.258.252,3.812.748,8.176,1.235,11.629-.821a.253.253,0,1,1,.258.434c-3.6,2.143-8.078,1.648-11.985.882q-.628-.124-1.261-.253c-3.525-.714-7.168-1.454-10.6-.533a24.11,24.11,0,0,0-4.969,2.2c-2.319,1.238-4.715,2.518-7.367,2.518" transform="translate(-205.985 -147.284)" fill="#56438c"/>
            <path id="Trazado_721773" data-name="Trazado 721773" d="M412.7,270.886c17.389-15.495.632-53.557,6.905-68.209l-.379-2.6c-9.769,10.682,9.768,49.418-10.105,70.807Z" transform="translate(-202.413 -98.989)" fill="#e8916a"/>
            <path id="Trazado_721774" data-name="Trazado 721774" d="M472.772,268.1c-12.463-14.315-.168-56.42-17.6-71.367l-.461-2.284c22.439,11.5,4.391,54.246,21.765,73.651Z" transform="translate(-224.968 -96.204)" fill="#e8916a"/>
            <path id="Trazado_721775" data-name="Trazado 721775" d="M455.6,121.271a13.821,13.821,0,0,1,9.3,9.04,17.467,17.467,0,0,1-1.192,13.128,16.534,16.534,0,0,1-10.457,8.811c-4.569,1.119-9.847-.437-12.6-4.249-2.238-3.1-2.621-7.233-1.887-10.982a34.053,34.053,0,0,1,2.663-7.529,21.779,21.779,0,0,1,2.095-4.3,12,12,0,0,1,12.076-3.923" transform="translate(-216.909 -59.826)" fill="#8c404c"/>
            <path id="Trazado_721776" data-name="Trazado 721776" d="M452.271,138.756a8.924,8.924,0,0,0-2.291-8.456,11.438,11.438,0,0,0-1.466-7.889,10.831,10.831,0,0,0-4.993,3.52,21.761,21.761,0,0,0-2.1,4.295,34.058,34.058,0,0,0-2.663,7.529c-.735,3.75-.352,7.885,1.887,10.982a11.193,11.193,0,0,0,6.069,4.1c-.2-2.749-.388-5.574-.6-8.219a8.433,8.433,0,0,0,6.151-5.865" transform="translate(-216.909 -60.563)" fill="#422c4f"/>
            <path id="Trazado_721777" data-name="Trazado 721777" d="M463.711,156.746a.189.189,0,0,1-.064-.368,10.36,10.36,0,0,0,6.863-10.324.189.189,0,1,1,.378-.021,10.736,10.736,0,0,1-7.113,10.7.188.188,0,0,1-.064.011" transform="translate(-229.326 -72.161)" fill="#422c4f"/>
            <path id="Trazado_721778" data-name="Trazado 721778" d="M474.086,163.261A.189.189,0,0,1,474,162.9a8.336,8.336,0,0,0,4.28-5.417.189.189,0,1,1,.368.089,8.719,8.719,0,0,1-4.476,5.666.193.193,0,0,1-.086.02" transform="translate(-234.459 -77.844)" fill="#422c4f"/>
            <path id="Trazado_721779" data-name="Trazado 721779" d="M381.1,158.068a44.566,44.566,0,0,1,6.1,28.438,36.118,36.118,0,0,0,1.283-21.076,13.492,13.492,0,0,0-2.161-5.037,6.926,6.926,0,0,0-5.219-2.325" transform="translate(-188.549 -78.204)" fill="#8c404c"/>
            <path id="Trazado_721780" data-name="Trazado 721780" d="M376.4,126.121a15.67,15.67,0,0,1,1.75-30.537,18.713,18.713,0,0,1,9.614-6.787,18.34,18.34,0,0,1,11.635.609,19.734,19.734,0,0,1,9.511,8.24,23.213,23.213,0,0,1,3.152,12.248c-.1,5.524-2.259,11.258-6.736,14.5-4.313,3.121-9.988,3.494-15.311,3.415a57.119,57.119,0,0,1-13.615-1.686" transform="translate(-180.601 -43.601)" fill="#8c404c"/>
            <path id="Trazado_721781" data-name="Trazado 721781" d="M414.394,140.507a19.933,19.933,0,0,1-1.526,12.582c-2.611,5.122-8.5,8.727-14.141,7.636-4.535-.876-8.081-4.419-10.754-8.186a78.225,78.225,0,0,1-6.849-12.2,23.287,23.287,0,0,0,7.3-13.664,24.255,24.255,0,0,0,22.621,8.8c1.232,6.378,3.345,5.027,3.345,5.027" transform="translate(-188.56 -62.674)" fill="#f0bf9c"/>
            <path id="Trazado_721782" data-name="Trazado 721782" d="M445.943,143.515a5.449,5.449,0,0,1,1.981-3.567,3.326,3.326,0,0,1,3.9-.108,4.077,4.077,0,0,1,1.322,2.471,8.159,8.159,0,0,1-1.515,6.47,4.976,4.976,0,0,1-2.109,1.686,2.843,2.843,0,0,1-2.616-.241c-.931-.662-.833-1.68-.92-2.687a16.138,16.138,0,0,1-.04-4.025" transform="translate(-220.573 -68.899)" fill="#f0bf9c"/>
            <path id="Trazado_721783" data-name="Trazado 721783" d="M453.658,145.49a3.577,3.577,0,0,0-.8-1.519,1.537,1.537,0,0,0-1.586-.424c-.694.273-.954,1.107-1.085,1.842a19.945,19.945,0,0,0-.311,3.578,2.621,2.621,0,0,0,.139.989.87.87,0,0,0,1.533.287,2.6,2.6,0,0,0,.449-.786,3.585,3.585,0,0,0,.36-2.083,1.421,1.421,0,0,0-1.529-1.18,4.407,4.407,0,0,1,.235-1.268.979.979,0,0,1,1.678-.455,6.027,6.027,0,0,1,.922,1.019" transform="translate(-222.573 -70.979)" fill="#e78882"/>
            <path id="Trazado_721784" data-name="Trazado 721784" d="M440.352,141.7c2.243,10.336,3.085,25.241,2.411,31.472,3.2-11.958,1.447-20.806.934-26.445s.382-7.472.382-7.472Z" transform="translate(-217.863 -68.899)" fill="#8c404c"/>
            <path id="Trazado_721785" data-name="Trazado 721785" d="M418.468,146.207l-9.179.343a5.115,5.115,0,0,1,4.365-2.23,8.41,8.41,0,0,1,4.814,1.888" transform="translate(-202.495 -71.399)" fill="#8c404c"/>
            <path id="Trazado_721786" data-name="Trazado 721786" d="M418.86,156.01a1.341,1.341,0,1,1-1.326-1.54,1.445,1.445,0,0,1,1.326,1.54" transform="translate(-205.917 -76.424)" fill="#422c4f"/>
            <path id="Trazado_721787" data-name="Trazado 721787" d="M383.442,153.018l6.449-2.381a3.645,3.645,0,0,0-3.878-.768,5.517,5.517,0,0,0-2.57,3.149" transform="translate(-189.707 -74.011)" fill="#8c404c"/>
            <path id="Trazado_721788" data-name="Trazado 721788" d="M391.106,161.488c.334.782,1.013,1.241,1.517,1.026s.642-1.024.308-1.805-1.013-1.241-1.517-1.026-.642,1.024-.308,1.805" transform="translate(-193.408 -78.977)" fill="#422c4f"/>
            <path id="Trazado_721789" data-name="Trazado 721789" d="M406.887,170.665l-5.364,1.159a3.46,3.46,0,0,0,2.848.932,4.09,4.09,0,0,0,2.516-2.091" transform="translate(-198.653 -84.436)" fill="#e78882"/>
            <path id="Trazado_721790" data-name="Trazado 721790" d="M417.162,171.813a56.522,56.522,0,0,1-10.152,5.148,4.866,4.866,0,0,0,4.193,1.331,6.805,6.805,0,0,0,3.769-2.245,14.952,14.952,0,0,0,2.189-4.235" transform="translate(-201.367 -85.004)" fill="#fff"/>
            <path id="Trazado_721791" data-name="Trazado 721791" d="M416.444,128.089a23.518,23.518,0,0,1-17.562-8,.189.189,0,1,1,.287-.247A23.084,23.084,0,0,0,418,127.653a.186.186,0,0,1,.2.176.19.19,0,0,1-.175.2q-.791.058-1.584.057" transform="translate(-197.323 -59.256)" fill="#422c4f"/>
            <path id="Trazado_721792" data-name="Trazado 721792" d="M378.66,134.625a.19.19,0,0,1-.129-.328,17.99,17.99,0,0,0,5.386-9.8.189.189,0,1,1,.372.07,18.368,18.368,0,0,1-5.5,10,.187.187,0,0,1-.129.051" transform="translate(-187.248 -61.52)" fill="#422c4f"/>
            <path id="Trazado_721793" data-name="Trazado 721793" d="M417.007,123.2a.2.2,0,0,1-.038,0,18.5,18.5,0,0,1-8.183-3.984.189.189,0,1,1,.245-.289,18.125,18.125,0,0,0,8.015,3.9.189.189,0,0,1-.038.375" transform="translate(-202.213 -58.817)" fill="#422c4f"/>
            <path id="Trazado_721794" data-name="Trazado 721794" d="M346.374,326.655c6.316,4.042,20.968,4.042,20.968,4.042h40.546l-6.905-4.926c-17.852,0-35.41-.379-41.852-4.8-3.663,3.663-12.758,5.684-12.758,5.684" transform="translate(-171.368 -158.8)" fill="#fbeed1"/>
            <path id="Trazado_721795" data-name="Trazado 721795" d="M439.207,303.933l-2.16,2.834.532-3.524,11.156-26.35,1.628.689Z" transform="translate(-216.228 -136.993)" fill="#454f6b"/>
            <path id="Trazado_721796" data-name="Trazado 721796" d="M470.088,203.471h0a19.763,19.763,0,0,1,15.992,11.555l16.531,36.766A14.126,14.126,0,0,1,488.42,271.65L458.846,268.9l-4.421,3.663-10.216-3.256a3.79,3.79,0,0,1-2.348-2.155l-1.271-3.05a2.021,2.021,0,0,1,.771-2.476l6.023-3.884a3.032,3.032,0,0,1,3.177-.067l7.149,4.193,29.11-5.473-15.047-33.684Z" transform="translate(-217.904 -100.667)" fill="#f0bf9c"/>
            <path id="Trazado_721797" data-name="Trazado 721797" d="M499.124,203.471l3.012.312a19.762,19.762,0,0,1,13.486,7.422l7.249,9.193-17.885,11.668-4.178-9.352Z" transform="translate(-246.94 -100.667)" fill="#6c6fc3"/>
            <path id="Trazado_721798" data-name="Trazado 721798" d="M524.482,242.3l-13.757,8.974,2.413,5.4,11.8-13.372Z" transform="translate(-252.68 -119.878)" fill="#422c4f"/>
            <path id="Trazado_721799" data-name="Trazado 721799" d="M540.681,303.4l-8.806,1.656-.37-.828a6.287,6.287,0,0,1,8.6-1.238Z" transform="translate(-262.961 -149.323)" fill="#e78882"/>
            <path id="Trazado_721800" data-name="Trazado 721800" d="M443.251,323.143l5.659-6.505-1.9.74a5.9,5.9,0,0,0-3.755,5.765" transform="translate(-219.294 -156.656)" fill="#e78882"/>
          </g>
        </g>
      </g>
    </g>
  </g>
</svg>
