<svg id="modista" xmlns="http://www.w3.org/2000/svg" width="39.129" height="41.827" viewBox="0 0 39.129 41.827">
  <g id="Grupo_968798" data-name="Grupo 968798">
    <path id="Trazado_722149" data-name="Trazado 722149" d="M51.573,429.419a2.024,2.024,0,1,0,2.024,2.024A2.026,2.026,0,0,0,51.573,429.419Zm0,2.7a.675.675,0,1,1,.675-.675A.675.675,0,0,1,51.573,432.118Z" transform="translate(-46.85 -394.338)" fill="#9b1f36"/>
    <path id="Trazado_722150" data-name="Trazado 722150" d="M54.625,37.48l-.347-.2c.005-.059.018-.116.018-.177V36.43a2.69,2.69,0,0,0-1.349-2.323V31.033H54.3v-1.57a7.427,7.427,0,0,0-2.484-5.516,3.365,3.365,0,0,0,.437-1.29,3.365,3.365,0,0,0,1.305-5.2A8.167,8.167,0,0,1,51.6,12.373V8.77A8.78,8.78,0,0,0,42.827,0h-2.7a8.78,8.78,0,0,0-8.77,8.77v3.6a7.462,7.462,0,0,1-.913,3.5l1.194.63a9.151,9.151,0,0,0,.943-2.783,2.682,2.682,0,0,0,1.475.443h0A7.28,7.28,0,0,0,38.1,20.656v1.022l-1.994.285-3.4-2.723v-1.7H28.66v4.048h1.349v2.7h-2.7v-2.7H25.961v-2.7H24.612v2.7H23.262v2.767a3.384,3.384,0,0,0-2.63,2.63H17.865v4.048h2.7v1.4a4.719,4.719,0,0,0,.675,9.391H35.522a2.012,2.012,0,0,0,1.431-.593l.477-.477a1.354,1.354,0,0,1,.764-.381l3.052-.436a1.354,1.354,0,0,1,1.145.381l.716.716a2.717,2.717,0,0,0,1.908.79h8.607A2.026,2.026,0,0,0,55.645,39.8v-.566A2.029,2.029,0,0,0,54.625,37.48Zm-4.377-1.05v1.349h-.675A.675.675,0,0,1,48.9,37.1V36.43a1.351,1.351,0,0,1,1.349-1.349H51.6a1.351,1.351,0,0,1,1.349,1.349V37.1a.675.675,0,0,1-.675.675H51.6V36.43Zm-2.7.505-.045.034a.679.679,0,0,1-.4.135h-.341a.677.677,0,0,1-.477-.2l-1.4-1.4a6.031,6.031,0,0,0-4.293-1.778H35.705a2.69,2.69,0,0,0-2.323-1.349H32.033a2.7,2.7,0,0,0-2.62,2.078,2.846,2.846,0,0,1,2.1-4.776h3.335a2.026,2.026,0,0,0,1.908,1.349h.675v1.349h1.349V31.033h.675a2.026,2.026,0,0,0,2.024-2.024V27.66a6.081,6.081,0,0,0,5.8-4.272l.275.039V36.936ZM32.033,35.081V36.43h-.675a.675.675,0,0,1-.675-.675v-.675a1.351,1.351,0,0,1,1.349-1.349h1.349a1.351,1.351,0,0,1,1.349,1.349v.675a.675.675,0,0,1-.675.675h-.675V35.081ZM51.6,33.732H50.248a2.671,2.671,0,0,0-1.349.375V31.033h2.7Zm1.349-4.268v.221H48.9V23.744A6.106,6.106,0,0,1,52.946,29.463ZM52.5,18.3a2.016,2.016,0,0,1-1.081,3.219l-.519.132.011.536a.255.255,0,0,0,.009.078h0a2.015,2.015,0,0,1-.2.868,7.343,7.343,0,0,0-2.794-1.015l-3.074-.439V20.656a7.281,7.281,0,0,0,4.044-6.489h0a2.678,2.678,0,0,0,1.469-.441A9.965,9.965,0,0,0,52.5,18.3Zm-2.254-6.83A1.351,1.351,0,0,1,48.9,12.818v-2.7a1.351,1.351,0,0,1,1.349,1.349Zm-17.54,0a1.351,1.351,0,0,1,1.349-1.349v2.7A1.351,1.351,0,0,1,32.707,11.469Zm1.349-2.7a2.671,2.671,0,0,0-1.349.375V8.77a7.43,7.43,0,0,1,7.421-7.421h2.7A7.43,7.43,0,0,1,50.248,8.77v.375A2.671,2.671,0,0,0,48.9,8.77H48.83a3.379,3.379,0,0,0-3.305-2.7h-.675V7.421h.675a2.021,2.021,0,0,1,1.9,1.349H45.574a10.815,10.815,0,0,1-5.228-1.344,7.294,7.294,0,0,0,.848-1.3l.213-.427L40.2,5.1l-.213.427A5.844,5.844,0,0,1,34.731,8.77h-.675ZM38.3,23.014a1.356,1.356,0,0,0,1.158-1.336V20.654a1.345,1.345,0,0,0-.745-1.2,5.94,5.94,0,0,1-3.3-5.341v-4.02A7.163,7.163,0,0,0,39.38,8.421a12.159,12.159,0,0,0,6.193,1.7h1.976v3.988a5.94,5.94,0,0,1-3.3,5.342,1.343,1.343,0,0,0-.745,1.206v1.022a1.355,1.355,0,0,0,1.158,1.336l1.251.179a4.726,4.726,0,0,1-4.434,3.119,2.026,2.026,0,0,0-2.024-2.024h-.437L37.557,23.12Zm-2.572.368,1.132.905H32.918a6.073,6.073,0,0,1,2.3-.834ZM30.009,18.89h1.349v1.349H30.009Zm2.7,2.7v-.62l1.611,1.289a7.432,7.432,0,0,0-2.96,1.489V21.588Zm-6.746,1.349v1.349H24.612V22.938Zm-6.746,6.746V28.335h1.349v1.349ZM17.865,37.1a3.373,3.373,0,1,1,3.373,3.373A3.377,3.377,0,0,1,17.865,37.1Zm8.1,0a4.726,4.726,0,0,0-4.048-4.668V27.66a2.026,2.026,0,0,1,2.024-2.024H39.454a.675.675,0,0,1,.675.675v2.7a.675.675,0,0,1-.675.675h-2.7a.675.675,0,0,1-.675-.675v-.675H31.512a4.2,4.2,0,0,0-2.139,7.809,2.023,2.023,0,0,0,1.31,1.511V39.8a2,2,0,0,0,.124.675H24.537A4.7,4.7,0,0,0,25.961,37.1ZM54.3,39.8a.675.675,0,0,1-.675.675H45.014a1.359,1.359,0,0,1-.954-.4l-.716-.716a2.717,2.717,0,0,0-2.29-.764L38,39.039a2.717,2.717,0,0,0-1.527.764L36,40.28a.673.673,0,0,1-.476.2H32.707a.675.675,0,0,1-.675-.675V37.78h2.024a2.026,2.026,0,0,0,2.024-2.024v-.675h4.511a4.691,4.691,0,0,1,3.339,1.383l1.4,1.4a2.009,2.009,0,0,0,1.431.593H47.1a2.035,2.035,0,0,0,.825-.183,2.02,2.02,0,0,0,1.649.857h2.7a2.014,2.014,0,0,0,1.446-.613l.237.136a.677.677,0,0,1,.34.586V39.8Z" transform="translate(-16.516 0)" fill="#9b1f36"/>
  </g>
</svg>
