<svg xmlns="http://www.w3.org/2000/svg" width="38.883" height="35.741" viewBox="0 0 38.883 35.741">
  <g id="lista-de-tareas" transform="translate(0 -20.687)">
    <path id="Trazado_722153" data-name="Trazado 722153" d="M28.564,26.221c-.042-.046-.086-.087-.127-.125l-.1-.092L23.191,21.13l-.076-.073a1.653,1.653,0,0,0-.335-.27.571.571,0,0,0-.06-.031.827.827,0,0,0-.346-.07H1.039A1.039,1.039,0,0,0,0,21.723V55.392a1.039,1.039,0,0,0,1.039,1.036h26.7a1.04,1.04,0,0,0,1.041-1.036V39.531a.569.569,0,1,0-1.138,0V55.289H1.138V21.825H21.926l0,2.967a2.417,2.417,0,0,0,.714,1.723,2.45,2.45,0,0,0,1.746.725h3.262v9.64a.569.569,0,0,0,1.138,0V26.671a.568.568,0,0,0-.221-.45Zm-5.119-.51a1.287,1.287,0,0,1-.381-.917V22.576L26.787,26.1h-2.4A1.319,1.319,0,0,1,23.444,25.711Z" fill="#9b1f36"/>
    <path id="Trazado_722154" data-name="Trazado 722154" d="M115.581,126.456a.569.569,0,0,0-.569-.569h-10.66a.569.569,0,1,0,0,1.138h10.66A.569.569,0,0,0,115.581,126.456Z" transform="translate(-95.901 -97.211)" fill="#9b1f36"/>
    <path id="Trazado_722155" data-name="Trazado 722155" d="M104.352,79.584h10.66a.569.569,0,0,0,0-1.138h-10.66a.569.569,0,1,0,0,1.138Z" transform="translate(-95.901 -53.373)" fill="#9b1f36"/>
    <path id="Trazado_722156" data-name="Trazado 722156" d="M189.179,267.5H178.865a.569.569,0,1,0,0,1.138h10.314a.569.569,0,1,0,0-1.138Z" transform="translate(-164.756 -228.067)" fill="#9b1f36"/>
    <path id="Trazado_722157" data-name="Trazado 722157" d="M189.179,224.2H178.865a.569.569,0,0,0,0,1.138h10.314a.569.569,0,0,0,0-1.138Z" transform="translate(-164.756 -188.058)" fill="#9b1f36"/>
    <path id="Trazado_722158" data-name="Trazado 722158" d="M189.179,395.246H178.865a.569.569,0,1,0,0,1.138h10.314a.569.569,0,1,0,0-1.138Z" transform="translate(-164.756 -346.114)" fill="#9b1f36"/>
    <path id="Trazado_722159" data-name="Trazado 722159" d="M189.179,351.977H178.865a.569.569,0,0,0,0,1.138h10.314a.569.569,0,0,0,0-1.138Z" transform="translate(-164.756 -306.131)" fill="#9b1f36"/>
    <path id="Trazado_722160" data-name="Trazado 722160" d="M57.855,181.27a.569.569,0,0,0-.8.119l-1.118,1.51h-5.43a.98.98,0,0,0-.98.977V189.4a.98.98,0,0,0,.98.977h5.567a.98.98,0,0,0,.98-.977v-5.528a.967.967,0,0,0-.1-.434l1.019-1.376A.569.569,0,0,0,57.855,181.27Zm-1.935,7.973H50.669v-5.206H55.1l-1.814,2.45-.562-.632a.569.569,0,0,0-.851.756l1.027,1.157a.569.569,0,0,0,.426.191h.025a.569.569,0,0,0,.432-.23l2.138-2.888v4.4Z" transform="translate(-45.769 -148.285)" fill="#9b1f36"/>
    <path id="Trazado_722161" data-name="Trazado 722161" d="M57.855,306.847a.569.569,0,0,0-.8.119l-1.118,1.51h-5.43a.98.98,0,0,0-.98.977v5.528a.98.98,0,0,0,.98.977h5.567a.98.98,0,0,0,.98-.977v-5.528a.967.967,0,0,0-.1-.434l1.019-1.376A.569.569,0,0,0,57.855,306.847ZM55.92,314.82H50.669v-5.206H55.1l-1.814,2.451-.562-.632a.569.569,0,0,0-.851.756l1.027,1.157a.569.569,0,0,0,.426.191h.025a.569.569,0,0,0,.432-.23l2.138-2.888Z" transform="translate(-45.769 -264.325)" fill="#9b1f36"/>
    <path id="Trazado_722162" data-name="Trazado 722162" d="M413.381,34.774h-1.955V33.607a1.233,1.233,0,0,0-.671-1.094V30.347a2.1,2.1,0,0,0-4.194,0v2.166a1.233,1.233,0,0,0-.669,1.094v23.67s0,.007,0,.011,0,.015,0,.023,0,.029,0,.044l0,.021q0,.025.011.049l0,.014a.578.578,0,0,0,.022.063l2.118,4.944q.008.019.018.038l.007.014a.651.651,0,0,0,.577.411h.009a.657.657,0,0,0,.582-.439l.011-.023,2.12-4.944a.566.566,0,0,0,.023-.064l0-.014c0-.016.008-.033.011-.049s0-.014,0-.021,0-.029,0-.044,0-.015,0-.022,0-.007,0-.011V53a.569.569,0,1,0-1.138,0v3.713H407.03v-23.1a.1.1,0,0,1,.1-.1h3.056a.1.1,0,0,1,.1.1V50.343a.569.569,0,0,0,1.138,0V35.913h1.386v7.956a.569.569,0,0,0,1.138,0V35.343a.569.569,0,0,0-.569-.569Zm-3.388,23.072-1.335,3.114-1.334-3.114ZM407.7,32.374V30.347a.959.959,0,0,1,1.917,0v2.027H407.7Z" transform="translate(-375.067 -6.999)" fill="#9b1f36"/>
  </g>
</svg>
