<svg xmlns="http://www.w3.org/2000/svg" xmlns:xlink="http://www.w3.org/1999/xlink" width="36.603" height="36.603" viewBox="0 0 36.603 36.603">
  <defs>
    <clipPath id="clip-path">
      <path id="path255" d="M0-682.665H36.6v36.6H0Z" transform="translate(0 682.665)" fill="#9b1f36"/>
    </clipPath>
  </defs>
  <g id="g249" transform="translate(0 682.665)">
    <g id="g251" transform="translate(0 -682.665)">
      <g id="g253" clip-path="url(#clip-path)">
        <g id="g259" transform="translate(2.322 0.536)">
          <path id="path261" d="M-152.112,0h-8.25a.367.367,0,0,0-.368.368v8.25a.369.369,0,0,0,.368.37h8.25a.371.371,0,0,0,.37-.37V.368A.369.369,0,0,0-152.112,0Z" transform="translate(160.73)" fill="none" stroke="#9b1f36" stroke-linecap="round" stroke-linejoin="round" stroke-miterlimit="10" stroke-width="1.4"/>
        </g>
        <g id="g263" transform="translate(11.31 1.198)">
          <path id="path265" d="M-168.679,0h-9.557V7.663h20.966l2-3.83-2-3.833h-8.9" transform="translate(178.236)" fill="none" stroke="#9b1f36" stroke-linecap="round" stroke-linejoin="round" stroke-miterlimit="10" stroke-width="1.4"/>
        </g>
        <g id="g267" transform="translate(2.322 13.806)">
          <path id="path269" d="M-152.112,0h-8.25a.369.369,0,0,0-.368.37V8.62a.369.369,0,0,0,.368.368h8.25a.37.37,0,0,0,.37-.368V.37A.371.371,0,0,0-152.112,0Z" transform="translate(160.73)" fill="none" stroke="#9b1f36" stroke-linecap="round" stroke-linejoin="round" stroke-miterlimit="10" stroke-width="1.4"/>
        </g>
        <g id="g271" transform="translate(11.31 14.468)">
          <path id="path273" d="M0-135.295v-7.665H20.966l2,3.833-2,3.833Z" transform="translate(0 142.96)" fill="none" stroke="#9b1f36" stroke-linecap="round" stroke-linejoin="round" stroke-miterlimit="10" stroke-width="1.4"/>
        </g>
        <g id="g275" transform="translate(2.322 27.079)">
          <path id="path277" d="M-152.112,0h-8.25a.367.367,0,0,0-.368.368v8.25a.369.369,0,0,0,.368.37h8.25a.371.371,0,0,0,.37-.37V.368A.369.369,0,0,0-152.112,0Z" transform="translate(160.73)" fill="none" stroke="#9b1f36" stroke-linecap="round" stroke-linejoin="round" stroke-miterlimit="10" stroke-width="1.4"/>
        </g>
        <g id="g279" transform="translate(6.393 3.056)">
          <path id="path281" d="M0,0H.844V3.946" fill="none" stroke="#9b1f36" stroke-linecap="round" stroke-linejoin="round" stroke-miterlimit="10" stroke-width="1.4"/>
        </g>
        <g id="g283" transform="translate(5.732 16.29)">
          <path id="path285" d="M-38.245-70.838s-1.918.025-2.011-.006.146-.189,1.4-1.988a2.555,2.555,0,0,0,.421-.856l.018-.154a1.009,1.009,0,0,0-1.01-1.008,1.008,1.008,0,0,0-.99.813" transform="translate(40.412 74.852)" fill="none" stroke="#9b1f36" stroke-linecap="round" stroke-linejoin="round" stroke-miterlimit="10" stroke-width="1.4"/>
        </g>
        <g id="g287" transform="translate(5.824 29.552)">
          <path id="path289" d="M0-14.393a1.013,1.013,0,0,1,.992-.815A1.009,1.009,0,0,1,2-14.2,1.011,1.011,0,0,1,.992-13.187" transform="translate(0 15.208)" fill="none" stroke="#9b1f36" stroke-linecap="round" stroke-linejoin="round" stroke-miterlimit="10" stroke-width="1.4"/>
        </g>
        <g id="g291" transform="translate(5.806 31.573)">
          <path id="path293" d="M-17.836,0a1.009,1.009,0,0,1,1.008,1.008,1.009,1.009,0,0,1-1.008,1.011,1.008,1.008,0,0,1-1-.869,1.073,1.073,0,0,1-.01-.142" transform="translate(18.847)" fill="none" stroke="#9b1f36" stroke-linecap="round" stroke-linejoin="round" stroke-miterlimit="10" stroke-width="1.4"/>
        </g>
        <g id="g295" transform="translate(14.249 3.755)">
          <path id="path297" d="M-58.365,0h-3.307" transform="translate(61.672)" fill="none" stroke="#9b1f36" stroke-linecap="round" stroke-linejoin="round" stroke-miterlimit="10" stroke-width="1.4"/>
        </g>
        <g id="g299" transform="translate(14.249 6.388)">
          <path id="path301" d="M-118.651,0h-6.722" transform="translate(125.373)" fill="none" stroke="#9b1f36" stroke-linecap="round" stroke-linejoin="round" stroke-miterlimit="10" stroke-width="1.4"/>
        </g>
        <g id="g303" transform="translate(14.249 16.939)">
          <path id="path305" d="M-58.365,0h-3.307" transform="translate(61.672)" fill="none" stroke="#9b1f36" stroke-linecap="round" stroke-linejoin="round" stroke-miterlimit="10" stroke-width="1.4"/>
        </g>
        <g id="g307" transform="translate(14.249 19.574)">
          <path id="path309" d="M-118.651,0h-6.722" transform="translate(125.373)" fill="none" stroke="#9b1f36" stroke-linecap="round" stroke-linejoin="round" stroke-miterlimit="10" stroke-width="1.4"/>
        </g>
        <g id="g311" transform="translate(14.249 30.293)">
          <path id="path313" d="M-58.365,0h-3.307" transform="translate(61.672)" fill="none" stroke="#9b1f36" stroke-linecap="round" stroke-linejoin="round" stroke-miterlimit="10" stroke-width="1.4"/>
        </g>
        <g id="g315" transform="translate(14.249 32.926)">
          <path id="path317" d="M-118.651,0h-6.722" transform="translate(125.373)" fill="none" stroke="#9b1f36" stroke-linecap="round" stroke-linejoin="round" stroke-miterlimit="10" stroke-width="1.4"/>
        </g>
        <g id="g319" transform="translate(11.31 27.74)">
          <path id="path321" d="M-168.679,0h-9.557V7.663h20.966l2-3.83-2-3.833h-8.9" transform="translate(178.236)" fill="none" stroke="#9b1f36" stroke-linecap="round" stroke-linejoin="round" stroke-miterlimit="10" stroke-width="1.4"/>
        </g>
      </g>
    </g>
  </g>
</svg>
