<svg xmlns="http://www.w3.org/2000/svg" xmlns:xlink="http://www.w3.org/1999/xlink" width="44.333" height="44.333" viewBox="0 0 44.333 44.333">
  <defs>
    <clipPath id="clip-path">
      <path id="path901" d="M0-682.665H44.333v44.333H0Z" transform="translate(0 682.665)" fill="#9b1f36"/>
    </clipPath>
  </defs>
  <g id="g891" transform="translate(0 682.665)">
    <g id="g893" transform="translate(37.629 -673.318)">
      <path id="path895" d="M0,0V2.948l1.57,1.57" fill="none" stroke="#9b1f36" stroke-linecap="round" stroke-linejoin="round" stroke-miterlimit="10" stroke-width="1.5"/>
    </g>
    <g id="g897" transform="translate(0 -682.665)">
      <g id="g899" clip-path="url(#clip-path)">
        <g id="g905" transform="translate(0.649 38.851)">
          <path id="path907" d="M-609.464-58.265h-41.621a.706.706,0,0,1-.706-.706v-2.634a.706.706,0,0,1,.706-.706h41.621a.706.706,0,0,1,.706.706v2.634A.706.706,0,0,1-609.464-58.265Z" transform="translate(651.792 62.312)" fill="none" stroke="#9b1f36" stroke-linecap="round" stroke-linejoin="round" stroke-miterlimit="10" stroke-width="1.5"/>
        </g>
        <g id="g909" transform="translate(11.104 28.223)">
          <path id="path911" d="M-49.22-24.609A1.709,1.709,0,0,1-50.929-22.9a1.709,1.709,0,0,1-1.709-1.709,1.709,1.709,0,0,1,1.709-1.709A1.709,1.709,0,0,1-49.22-24.609Z" transform="translate(52.639 26.319)" fill="none" stroke="#9b1f36" stroke-linecap="round" stroke-linejoin="round" stroke-miterlimit="10" stroke-width="1.5"/>
        </g>
        <g id="g913" transform="translate(2.643 23.879)">
          <path id="path915" d="M-281-69.311V-72.9a1.222,1.222,0,0,0-1.223-1.222H-299.3a1.222,1.222,0,0,0-1.222,1.222v11.415" transform="translate(300.518 74.125)" fill="none" stroke="#9b1f36" stroke-linecap="round" stroke-linejoin="round" stroke-miterlimit="10" stroke-width="1.5"/>
        </g>
        <g id="g917" transform="translate(22.159 31.734)">
          <path id="path919" d="M0-68.865v-4.783" transform="translate(0 73.648)" fill="none" stroke="#9b1f36" stroke-linecap="round" stroke-linejoin="round" stroke-miterlimit="10" stroke-width="1.5"/>
        </g>
        <g id="g921" transform="translate(0.649 36.517)">
          <path id="path923" d="M-329.254-33.61a1.741,1.741,0,0,0,.636-1.347.987.987,0,0,0-.987-.987h-21.528a.987.987,0,0,0-.987.987,1.741,1.741,0,0,0,.64,1.35" transform="translate(352.12 35.944)" fill="none" stroke="#9b1f36" stroke-linecap="round" stroke-linejoin="round" stroke-miterlimit="10" stroke-width="1.5"/>
        </g>
        <g id="g925" transform="translate(21.845 21.439)">
          <path id="path927" d="M-68.244-250.708V-255.1a1.576,1.576,0,0,1,1.576-1.576h3.891v-6.111a4.691,4.691,0,0,0-3.747-4.614l-3.071-.721a6.264,6.264,0,0,1-3.388,2.847" transform="translate(72.984 268.119)" fill="none" stroke="#9b1f36" stroke-linecap="round" stroke-linejoin="round" stroke-miterlimit="10" stroke-width="1.5"/>
        </g>
        <g id="g929" transform="translate(7.378 21.439)">
          <path id="path931" d="M-119.843-35.131a6.057,6.057,0,0,1-2.491-2.44l-3.071.721a4.732,4.732,0,0,0-2.762,1.718" transform="translate(128.166 37.571)" fill="none" stroke="#9b1f36" stroke-linecap="round" stroke-linejoin="round" stroke-miterlimit="10" stroke-width="1.5"/>
        </g>
        <g id="g933" transform="translate(22.337 18.192)">
          <path id="path935" d="M-41.71-46.763l-2.9-.68v-2.567" transform="translate(44.607 50.011)" fill="none" stroke="#9b1f36" stroke-linecap="round" stroke-linejoin="round" stroke-miterlimit="10" stroke-width="1.5"/>
        </g>
        <g id="g937" transform="translate(13.211 18.14)">
          <path id="path939" d="M-41.711,0V2.619l-2.9.68" transform="translate(44.608)" fill="none" stroke="#9b1f36" stroke-linecap="round" stroke-linejoin="round" stroke-miterlimit="10" stroke-width="1.5"/>
        </g>
        <g id="g941" transform="translate(13.466 9.352)">
          <path id="path943" d="M0-43.019l.009,1.1a5.375,5.375,0,0,0,1.822,3.97c.927.8,2.231,2.291,3.953,2.311,1.722-.019,3.026-1.512,3.953-2.311a5.375,5.375,0,0,0,1.822-3.97l0-4.084" transform="translate(0 46.007)" fill="none" stroke="#9b1f36" stroke-linecap="round" stroke-linejoin="round" stroke-miterlimit="10" stroke-width="1.5"/>
        </g>
        <g id="g945" transform="translate(11.152 1.435)">
          <path id="path947" d="M-34.6-28.023a7.381,7.381,0,0,1,5-1.946h1.325a7.407,7.407,0,0,1,7.407,7.407v1.368a4.779,4.779,0,0,1-3.322-1.938.911.911,0,0,0-1.269-.26c-1.978,1.333-7.123,5.865-11.548,3.8v-2.967a7.383,7.383,0,0,1,.6-2.922" transform="translate(37.001 29.969)" fill="none" stroke="#9b1f36" stroke-linecap="round" stroke-linejoin="round" stroke-miterlimit="10" stroke-width="1.5"/>
        </g>
        <g id="g949" transform="translate(11.152 11.809)">
          <path id="path951" d="M0,0V7.765A4.278,4.278,0,0,0,.609,9.97" fill="none" stroke="#9b1f36" stroke-linecap="round" stroke-linejoin="round" stroke-miterlimit="10" stroke-width="1.5"/>
        </g>
        <g id="g953" transform="translate(26.683 10.21)">
          <path id="path955" d="M0-166.584a4.278,4.278,0,0,0,.609-2.206v-9.364" transform="translate(0 178.153)" fill="none" stroke="#9b1f36" stroke-linecap="round" stroke-linejoin="round" stroke-miterlimit="10" stroke-width="1.5"/>
        </g>
        <g id="g957" transform="translate(32.051 32.886)">
          <path id="path959" d="M0-85.888v-5.965" transform="translate(0 91.853)" fill="none" stroke="#9b1f36" stroke-linecap="round" stroke-linejoin="round" stroke-miterlimit="10" stroke-width="1.5"/>
        </g>
        <g id="g961" transform="translate(31.592 6.257)">
          <path id="path963" d="M-173.852-86.927a6.037,6.037,0,0,1-6.037,6.037,6.037,6.037,0,0,1-6.037-6.037,6.037,6.037,0,0,1,6.037-6.037A6.037,6.037,0,0,1-173.852-86.927Z" transform="translate(185.926 92.964)" fill="none" stroke="#9b1f36" stroke-linecap="round" stroke-linejoin="round" stroke-miterlimit="10" stroke-width="1.5"/>
        </g>
      </g>
    </g>
  </g>
</svg>
