<svg xmlns="http://www.w3.org/2000/svg" width="40.799" height="40.799" viewBox="0 0 40.799 40.799">
  <g id="salario" transform="translate(0)">
    <path id="Trazado_722163" data-name="Trazado 722163" d="M37.974,336.68h-.1a2.841,2.841,0,0,0-1.184.26l-8.277,3.82H25.321A3.057,3.057,0,0,0,22.78,336H13.6a.678.678,0,0,0-.481.2L10.6,338.72H6.8v-.68a.68.68,0,0,0-.68-.68H.68a.68.68,0,0,0-.68.68v9.52a.68.68,0,0,0,.68.68H6.12a.68.68,0,0,0,.68-.68H29.239a.68.68,0,0,0,.333-.087l9.786-5.5a2.825,2.825,0,0,0-1.385-5.288ZM5.44,346.88H1.36v-8.16H5.44Zm33.252-6.1L29.061,346.2H6.8v-6.12h4.08a.678.678,0,0,0,.481-.2l2.521-2.521h8.9a1.7,1.7,0,1,1,0,3.4H17v1.36h11.56a.673.673,0,0,0,.285-.062l8.413-3.883a1.462,1.462,0,0,1,.613-.135h.1a1.465,1.465,0,0,1,.718,2.743Zm0,0" transform="translate(0 -307.441)" fill="#9b1f36"/>
    <path id="Trazado_722164" data-name="Trazado 722164" d="M93.6,0a13.6,13.6,0,1,0,13.6,13.6A13.615,13.615,0,0,0,93.6,0Zm0,25.839a12.24,12.24,0,1,1,12.24-12.24A12.254,12.254,0,0,1,93.6,25.839Zm0,0" transform="translate(-73.2)" fill="#9b1f36"/>
    <path id="Trazado_722165" data-name="Trazado 722165" d="M131.583,36.351l-1.086.817a9.435,9.435,0,0,1,1.9,5.712,9.513,9.513,0,1,1-5.077-8.422l.635-1.2a10.882,10.882,0,1,0,5.8,9.625,10.786,10.786,0,0,0-2.177-6.529Zm0,0" transform="translate(-102.48 -29.28)" fill="#9b1f36"/>
    <path id="Trazado_722166" data-name="Trazado 722166" d="M308.884,58.327a10.913,10.913,0,0,0-.868-.725l-.817,1.087a9.521,9.521,0,0,1,.76.635Zm0,0" transform="translate(-281.087 -52.706)" fill="#9b1f36"/>
    <path id="Trazado_722167" data-name="Trazado 722167" d="M195.4,74.72h1.36a2.043,2.043,0,0,1,2.04,2.04h1.36a3.4,3.4,0,0,0-3.4-3.4V72H195.4v1.36a3.4,3.4,0,1,0,0,6.8h1.36a2.04,2.04,0,1,1,0,4.08H195.4a2.043,2.043,0,0,1-2.04-2.04H192a3.4,3.4,0,0,0,3.4,3.4v1.36h1.36V85.6a3.4,3.4,0,0,0,0-6.8H195.4a2.04,2.04,0,1,1,0-4.08Zm0,0" transform="translate(-175.68 -65.88)" fill="#9b1f36"/>
    <path id="Trazado_722168" data-name="Trazado 722168" d="M312,152h1.36v1.36H312Zm0,0" transform="translate(-285.481 -139.08)" fill="#9b1f36"/>
    <path id="Trazado_722169" data-name="Trazado 722169" d="M152,152h1.36v1.36H152Zm0,0" transform="translate(-139.08 -139.08)" fill="#9b1f36"/>
    <path id="Trazado_722170" data-name="Trazado 722170" d="M360,280h1.36v1.36H360Zm0,0" transform="translate(-329.401 -256.201)" fill="#9b1f36"/>
    <path id="Trazado_722171" data-name="Trazado 722171" d="M360,312h1.36v4.08H360Zm0,0" transform="translate(-329.401 -285.481)" fill="#9b1f36"/>
    <path id="Trazado_722172" data-name="Trazado 722172" d="M320,328h1.36v4.08H320Zm0,0" transform="translate(-292.801 -300.121)" fill="#9b1f36"/>
  </g>
</svg>
