<svg xmlns="http://www.w3.org/2000/svg" width="39.62" height="39.62" viewBox="0 0 39.62 39.62">
  <path id="Trazado_722188" data-name="Trazado 722188" d="M37.639,9.905h-.713a4.622,4.622,0,0,0-4.57-3.962H29.715v-3.3a1.321,1.321,0,0,0-1.321-1.321V.66a.66.66,0,1,0-1.321,0v.66a1.321,1.321,0,0,0-1.321,1.321v3.3H24.432v-3.3a1.321,1.321,0,0,0-1.321-1.321V.66a.66.66,0,0,0-1.321,0v.66A1.321,1.321,0,0,0,20.47,2.641v3.3H8.584v-.66a1.981,1.981,0,0,0-3.962,0v.66A4.628,4.628,0,0,0,0,10.565v7.264A2.641,2.641,0,0,0,2.641,20.47v.66a1.981,1.981,0,0,0,1.981,1.981H5.943v3.3a.66.66,0,1,0,1.321,0v-3.3H8.584a1.981,1.981,0,0,0,1.981-1.981v-.66a2.641,2.641,0,0,0,2.641-2.641v-.66a1.321,1.321,0,0,1,1.321-1.321h7.924a1.321,1.321,0,0,1,1.321,1.321V27.734a.66.66,0,0,1-.66.66H2.641A2.641,2.641,0,0,0,0,31.036v6.6A1.981,1.981,0,0,0,1.981,39.62H35a1.981,1.981,0,0,0,1.981-1.981V21.791h.66A1.981,1.981,0,0,0,39.62,19.81V11.886A1.981,1.981,0,0,0,37.639,9.905ZM27.074,2.641h1.321v3.3H27.074Zm-5.283,0h1.321v3.3H21.791ZM5.943,5.283a.66.66,0,1,1,1.321,0v.66H5.943Zm3.3,15.848a.66.66,0,0,1-.66.66H4.622a.66.66,0,0,1-.66-.66v-.66H9.245ZM1.321,31.036a1.321,1.321,0,0,1,1.321-1.321h20.47a1.981,1.981,0,0,0,1.981-1.981V17.169a2.641,2.641,0,0,0-2.641-2.641H14.527a2.641,2.641,0,0,0-2.641,2.641v.66a1.321,1.321,0,0,1-1.321,1.321H2.641a1.321,1.321,0,0,1-1.321-1.321V10.565a3.306,3.306,0,0,1,3.3-3.3H32.356a3.306,3.306,0,0,1,3.3,3.3V35.658H1.321Zm34.337,6.6a.66.66,0,0,1-.66.66H1.981a.66.66,0,0,1-.66-.66v-.66H35.658ZM38.3,19.81a.66.66,0,0,1-.66.66h-.66V11.226h.66a.66.66,0,0,1,.66.66Z" fill="#9b1f36"/>
</svg>
