<svg xmlns="http://www.w3.org/2000/svg" width="100" height="100" viewBox="0 0 100 100">
  <g id="Grupo_80119" data-name="Grupo 80119" transform="translate(-209 -1333)">
    <circle id="Elipse_4717" data-name="Elipse 4717" cx="50" cy="50" r="50" transform="translate(209 1333)" fill="#b3eeef"/>
    <g id="humano" transform="translate(226.6 1350.3)">
      <g id="Grupo_968857" data-name="Grupo 968857">
        <circle id="Elipse_4878" data-name="Elipse 4878" cx="11.9" cy="11.9" r="11.9" transform="translate(40.5 24)" fill="none" stroke="#9b1f36" stroke-linecap="round" stroke-linejoin="round" stroke-miterlimit="10" stroke-width="1.5"/>
        <path id="Trazado_722403" data-name="Trazado 722403" d="M47.3,36.9,50,39.6l7.5-7.4" fill="none" stroke="#9b1f36" stroke-linecap="round" stroke-linejoin="round" stroke-miterlimit="10" stroke-width="1.5"/>
      </g>
      <g id="Grupo_968858" data-name="Grupo 968858">
        <path id="Trazado_722404" data-name="Trazado 722404" d="M32.5,35,43.9,60.8A2.344,2.344,0,0,1,42.6,64a2.316,2.316,0,0,1-3.2-1.3L32.5,47.1" fill="none" stroke="#9b1f36" stroke-linecap="round" stroke-linejoin="round" stroke-miterlimit="10" stroke-width="1.5"/>
        <path id="Trazado_722405" data-name="Trazado 722405" d="M38.5,60.8l4.5-2" fill="none" stroke="#9b1f36" stroke-linecap="round" stroke-linejoin="round" stroke-miterlimit="10" stroke-width="1.5"/>
        <path id="Trazado_722406" data-name="Trazado 722406" d="M17.7,47.2,10.8,62.8a2.508,2.508,0,0,1-3.2,1.3,2.508,2.508,0,0,1-1.3-3.2L17.7,35" fill="none" stroke="#9b1f36" stroke-linecap="round" stroke-linejoin="round" stroke-miterlimit="10" stroke-width="1.5"/>
        <path id="Trazado_722407" data-name="Trazado 722407" d="M11.7,60.8l-4.5-2" fill="none" stroke="#9b1f36" stroke-linecap="round" stroke-linejoin="round" stroke-miterlimit="10" stroke-width="1.5"/>
        <path id="Trazado_722408" data-name="Trazado 722408" d="M11.1,16.2l-4-9-.9-2A2.508,2.508,0,0,1,7.5,2a2.316,2.316,0,0,1,3.2,1.3l.9,2,4.9,11" fill="none" stroke="#9b1f36" stroke-linecap="round" stroke-linejoin="round" stroke-miterlimit="10" stroke-width="1.5"/>
        <path id="Trazado_722409" data-name="Trazado 722409" d="M11.7,5.2l-4.5,2" fill="none" stroke="#9b1f36" stroke-linecap="round" stroke-linejoin="round" stroke-miterlimit="10" stroke-width="1.5"/>
        <path id="Trazado_722410" data-name="Trazado 722410" d="M6.4,16.2v4.9" fill="none" stroke="#9b1f36" stroke-linecap="round" stroke-linejoin="round" stroke-miterlimit="10" stroke-width="1.5"/>
        <path id="Trazado_722411" data-name="Trazado 722411" d="M48.4,18.7a2.476,2.476,0,0,1-2.5,2.5h-11a2.476,2.476,0,0,0-2.5,2.5V61.9a2.5,2.5,0,1,1-5,0V47.2a2.5,2.5,0,0,0-5,0V61.8a2.5,2.5,0,0,1-5,0V23.6a2.476,2.476,0,0,0-2.5-2.5H3.9a2.5,2.5,0,0,1,0-5H45.6a2.694,2.694,0,0,1,2.8,2.6Z" fill="none" stroke="#9b1f36" stroke-linecap="round" stroke-linejoin="round" stroke-miterlimit="10" stroke-width="1.5"/>
        <path id="Trazado_722412" data-name="Trazado 722412" d="M17.7,38.3H32.5" fill="none" stroke="#9b1f36" stroke-linecap="round" stroke-linejoin="round" stroke-miterlimit="10" stroke-width="1.5"/>
        <circle id="Elipse_4879" data-name="Elipse 4879" cx="5.7" cy="5.7" r="5.7" transform="translate(19.4 1.7)" fill="none" stroke="#9b1f36" stroke-linecap="round" stroke-linejoin="round" stroke-miterlimit="10" stroke-width="1.5"/>
        <path id="Trazado_722413" data-name="Trazado 722413" d="M43.7,16.2v4.9" fill="none" stroke="#9b1f36" stroke-linecap="round" stroke-linejoin="round" stroke-miterlimit="10" stroke-width="1.5"/>
        <path id="Trazado_722414" data-name="Trazado 722414" d="M17.7,59.6h4.9" fill="none" stroke="#9b1f36" stroke-linecap="round" stroke-linejoin="round" stroke-miterlimit="10" stroke-width="1.5"/>
        <path id="Trazado_722415" data-name="Trazado 722415" d="M27.5,59.6h5" fill="none" stroke="#9b1f36" stroke-linecap="round" stroke-linejoin="round" stroke-miterlimit="10" stroke-width="1.5"/>
        <path id="Trazado_722416" data-name="Trazado 722416" d="M33.6,16.2l4.9-11,.9-2a2.508,2.508,0,0,1,3.2-1.3,2.508,2.508,0,0,1,1.3,3.2l-.9,2-4,9" fill="none" stroke="#9b1f36" stroke-linecap="round" stroke-linejoin="round" stroke-miterlimit="10" stroke-width="1.5"/>
        <path id="Trazado_722417" data-name="Trazado 722417" d="M38.5,5.2l4.5,2" fill="none" stroke="#9b1f36" stroke-linecap="round" stroke-linejoin="round" stroke-miterlimit="10" stroke-width="1.5"/>
      </g>
    </g>
  </g>
</svg>
